<svg width="50" height="50" viewBox="0 0 50 50" fill="none" xmlns="http://www.w3.org/2000/svg">
<rect width="50" height="50" rx="8" fill="#5D5FEF"/>
<path d="M19.9771 15.7389C18.9663 16.7685 18.9663 18.4344 19.9958 19.4639L22.242 21.7102C24.3572 23.8254 24.3572 27.2696 22.242 29.3848L18.1239 25.2667C17.0663 24.2091 16.5329 22.8146 16.5329 21.4294C16.5329 20.0442 17.0663 18.6497 18.1239 17.5921L19.949 15.767C19.9584 15.7577 19.9677 15.7483 19.9771 15.7389Z" fill="#5D5FEF" stroke="white" stroke-width="2" stroke-miterlimit="10"/>
<path d="M21.7741 21.2413L19.9959 19.463C18.9664 18.4335 18.957 16.7769 19.9772 15.738C20.988 14.7459 22.5978 14.7646 23.5992 15.7661C24.1046 16.2715 24.3573 16.936 24.3573 17.5911C24.3573 18.2463 24.1046 18.9108 23.5992 19.4162L23.178 19.8374" fill="#5D5FEF"/>
<path d="M21.7741 21.2413L19.9959 19.463C18.9664 18.4335 18.957 16.7769 19.9772 15.738C20.988 14.7459 22.5978 14.7646 23.5992 15.7661C24.1046 16.2715 24.3573 16.936 24.3573 17.5911C24.3573 18.2463 24.1046 18.9108 23.5992 19.4162L23.178 19.8374" stroke="white" stroke-width="2" stroke-miterlimit="10"/>
<path d="M30.5994 34.129C31.6102 33.0994 31.6102 31.4335 30.5807 30.404L28.3345 28.1577C26.2193 26.0425 26.2193 22.5983 28.3345 20.4831L32.4526 24.6012C33.5102 25.6588 34.0437 27.0533 34.0437 28.4385C34.0437 29.8237 33.5102 31.2182 32.4526 32.2758L30.6275 34.1009C30.6088 34.1196 30.5994 34.129 30.5994 34.129Z" fill="#5D5FEF" stroke="white" stroke-width="2" stroke-miterlimit="10"/>
<path d="M28.7927 28.6352L30.571 30.4135C31.6005 31.443 31.6098 33.0996 30.5897 34.1385C29.5789 35.1306 27.9691 35.1119 26.9676 34.1104C26.4622 33.605 26.2095 32.9405 26.2095 32.2854C26.2095 31.6302 26.4622 30.9657 26.9676 30.4603L27.3982 30.0298" fill="#5D5FEF"/>
<path d="M28.7927 28.6352L30.571 30.4135C31.6005 31.443 31.6098 33.0996 30.5897 34.1385C29.5789 35.1306 27.9691 35.1119 26.9676 34.1104C26.4622 33.605 26.2095 32.9405 26.2095 32.2854C26.2095 31.6302 26.4622 30.9657 26.9676 30.4603L27.3982 30.0298" stroke="white" stroke-width="2" stroke-miterlimit="10"/>
</svg>
