<?xml version="1.0" encoding="utf-8"?>
<!-- Generator: Adobe Illustrator 27.5.0, SVG Export Plug-In . SVG Version: 6.00 Build 0)  -->
<svg version="1.1" xmlns="http://www.w3.org/2000/svg" xmlns:xlink="http://www.w3.org/1999/xlink" x="0px" y="0px"
	 viewBox="0 0 500 500" style="enable-background:new 0 0 500 500;" xml:space="preserve">
<g id="BACKGROUND">
	<rect style="fill:#FFFFFF;" width="500" height="500"/>
</g>
<g id="OBJECTS">
	<path style="fill:#D3E8EE;" d="M467.365,441.046c0,6.541-95.639,11.843-213.615,11.843c-117.976,0-213.615-5.302-213.615-11.843
		c0-6.541,95.638-11.843,213.615-11.843C371.726,429.203,467.365,434.505,467.365,441.046z"/>
	<g>
		<path style="fill:#D3E8EE;" d="M229.931,126.403c-16.903-61.318-93.074-81.071-136.727-35.245
			c-0.627,0.658-1.253,1.327-1.879,2.007c-62.583,68.03-33.018,235.677,97.591,278.169
			c130.609,42.491,266.461-35.102,274.093-104.465c7.632-69.363-52.625-91.158-146.137-71.762
			C264.04,206.065,240.453,164.575,229.931,126.403z"/>
		<path style="fill:#D3E8EE;" d="M344.097,140.956c-16.916,5.225-19.58,21.227-4.703,30.247c4.917,2.981,11.641,5.091,20.835,5.332
			c35.024,0.917,51.083-16.756,34.629-34.485C384.703,131.107,360.861,135.777,344.097,140.956z"/>
		<path style="fill:#D3E8EE;" d="M78.817,301.974c-13.472-11.488-28.412-5.169-28.063,12.225c0.116,5.749,1.934,12.558,6.654,20.451
			c17.98,30.07,41.506,34.168,47.668,10.779C108.879,330.993,92.168,313.358,78.817,301.974z"/>
		<path style="fill:#D3E8EE;" d="M435.305,332.845c-4.96,7.001-1.104,15.318,7.418,15.634c2.816,0.104,6.067-0.688,9.704-3.029
			c13.855-8.915,14.68-21.604,2.887-25.639C448.034,317.322,440.221,325.907,435.305,332.845z"/>
		<path style="fill:#D3E8EE;" d="M172.755,45.393c-6.339-1.221-10.84,4.007-8.406,9.944c0.805,1.962,2.358,3.943,5.093,5.707
			c10.418,6.721,19.369,3.34,18.465-5.996C187.35,49.287,179.037,46.603,172.755,45.393z"/>
	</g>
	<g>
		<g>
			<path style="fill:#004FC7;" d="M89.177,105.054c4.166,14.005,18.153,13.569,17.855,24.938
				c-0.298,11.367,6.846,19.999,16.665,17.916c9.822-2.085,16.932-4.168,21.413,7.141c4.478,11.309,18.763,16.963,24.416,8.034
				c1.41-2.221,2.93-4.63,4.418-6.992c0.406-0.646,0.812-1.288,1.21-1.922c0.093-0.146,0.187-0.292,0.277-0.439
				c5.986-9.504,4.009-22.099-4.816-29.046c-3.573-2.812-7.847-4.393-12.694-2.965c-15.177,4.463-9.708-10.802-18.751-17.26
				c-10.414-7.441-19.348,0.981-26.484-5.358C102.76,90.286,85.011,91.05,89.177,105.054z"/>
			<g>
				<path style="fill:#0034AE;" d="M107.284,111.109l66.66,44.982c0.406-0.646,0.812-1.288,1.21-1.922l-66.6-44.942
					c-0.52-0.35-1.226-0.214-1.576,0.305C106.629,110.052,106.765,110.758,107.284,111.109z"/>
			</g>
		</g>
		<g>
			<path style="fill:#004FC7;" d="M421.294,313.012c-5.756,13.609-19.765,11.603-20.74,23.064
				c-0.975,11.458-9.121,19.332-18.757,16.139c-9.637-3.196-16.551-6.086-22.321,4.778c-5.768,10.865-20.758,14.946-25.44,5.338
				c-1.168-2.391-2.426-4.981-3.656-7.523c-0.336-0.694-0.672-1.386-1.001-2.067c-0.077-0.157-0.155-0.315-0.23-0.472
				c-4.952-10.223-1.553-22.66,8.095-28.653c3.906-2.426,8.379-3.535,13.09-1.558c14.754,6.186,10.967-9.769,20.779-15.246
				c11.3-6.312,19.336,3.154,27.218-2.418C409.296,296.646,427.05,299.403,421.294,313.012z"/>
			<g>
				<path style="fill:#0034AE;" d="M402.417,317.068l-72.037,37.74c-0.336-0.694-0.672-1.386-1.001-2.067l71.971-37.706
					c0.561-0.294,1.256-0.078,1.55,0.483C403.194,316.079,402.978,316.773,402.417,317.068z"/>
			</g>
		</g>
		<g>
			<path style="fill:#0172D2;" d="M396.435,255.447c1.659,13.695-10.618,18.577-6.085,28.312c4.532,9.733,1.592,19.894-7.695,21.783
				c-9.29,1.887-16.232,2.758-15.859,14.237c0.375,11.478-9.871,21.746-18.124,16.139c-2.056-1.394-4.279-2.908-6.455-4.394
				c-0.594-0.406-1.188-0.811-1.771-1.209c-0.136-0.092-0.272-0.183-0.405-0.276c-8.758-5.979-11.783-17.631-6.752-26.966
				c2.037-3.779,5.144-6.755,9.878-7.342c14.823-1.842,4.345-13.006,9.748-21.999c6.221-10.361,17.125-6.427,20.921-14.6
				C379.117,247.765,394.776,241.752,396.435,255.447z"/>
			<g>
				<path style="fill:#004FC7;" d="M383.03,267.5l-40.814,64.025c-0.594-0.406-1.188-0.811-1.771-1.209l40.777-63.967
					c0.318-0.499,0.981-0.646,1.48-0.328C383.2,266.338,383.348,267.001,383.03,267.5z"/>
			</g>
		</g>
		<g>
			<path style="fill:#0172D2;" d="M111.178,51.885c-1.731,14.287,11.077,19.38,6.348,29.535c-4.728,10.153-1.66,20.753,8.028,22.723
				c9.691,1.969,16.932,2.877,16.544,14.852c-0.391,11.974,10.297,22.685,18.907,16.836c2.145-1.454,4.463-3.033,6.734-4.584
				c0.62-0.424,1.239-0.845,1.847-1.261c0.142-0.096,0.283-0.191,0.423-0.288c9.136-6.238,12.292-18.392,7.044-28.13
				c-2.125-3.942-5.366-7.047-10.305-7.659c-15.463-1.922-4.533-13.568-10.169-22.949c-6.489-10.808-17.865-6.704-21.825-15.23
				C129.244,43.871,112.908,37.598,111.178,51.885z"/>
			<g>
				<path style="fill:#004FC7;" d="M125.162,64.458l42.577,66.789c0.62-0.424,1.239-0.845,1.847-1.261l-42.538-66.729
					c-0.332-0.521-1.023-0.674-1.543-0.343C124.984,63.246,124.83,63.938,125.162,64.458z"/>
			</g>
		</g>
		<path style="fill:#FC5F2D;" d="M416.338,64.78c16.007-6.669,29.933-15.932,22.206-21.483c-7.734-5.556-31.398,10.839-42.35,30.154
			l-5.297,5.679c8.227-13.937,10.635-34.071,3.518-37.895c-7.072-3.8-7.459,9.749-5.748,22.182
			c1.302,9.464-0.014,15.959-1.008,19.184l-25.017,26.824c12.965-22.107,16.734-53.891,5.472-59.942
			c-11.222-6.029-11.835,15.468-9.12,35.196c2.052,14.908,0.008,25.179-1.565,30.335l-4.988,5.348
			c0.792,1.01,1.589,2.016,2.393,3.017l29.763-31.913c3.562-0.902,8.709-1.642,15.413-1.192c12.522,0.841,26.011-0.488,21.728-7.278
			c-3.717-5.893-19.041-3.876-31.738,2.677l10.293-11.036C404.06,71.767,409.429,67.658,416.338,64.78z"/>
		<path style="fill:#FC5F2D;" d="M92.698,293.255c-16.617-4.956-31.436-12.711-24.333-19.041c7.11-6.335,32.36,7.492,45.274,25.555
			l5.862,5.094c-9.641-12.999-14.144-32.771-7.465-37.318c6.636-4.519,8.438,8.914,8.038,21.458
			c-0.304,9.549,1.684,15.87,3.011,18.974l27.687,24.058c-15.208-20.628-22.283-51.844-11.716-59.039
			c10.529-7.171,13.389,14.145,12.754,34.048c-0.48,15.041,2.628,25.041,4.732,30.005l5.52,4.797
			c-0.682,1.088-1.369,2.171-2.064,3.25l-32.94-28.622c-3.636-0.524-8.833-0.722-15.453,0.428
			c-12.365,2.147-25.919,2.238-22.37-4.964c3.079-6.25,18.531-5.848,31.843-0.66l-11.392-9.898
			C105.64,298.918,99.87,295.394,92.698,293.255z"/>
	</g>
	<g>
		<g>
			<path style="fill:#133643;" d="M355.117,91.387v330.665c0,10.366-8.4,18.766-18.766,18.766H171.686
				c-5.208,0-9.916-2.119-13.317-5.542c-3.367-3.395-5.448-8.066-5.448-13.224V91.387c0-10.366,8.4-18.766,18.766-18.766h164.665
				c3.064,0,5.957,0.733,8.512,2.037C350.951,77.76,355.117,84.085,355.117,91.387z"/>
			<path style="fill:#000B17;" d="M355.117,91.387v330.665c0,10.366-8.4,18.766-18.766,18.766H171.686
				c-5.208,0-9.916-2.119-13.317-5.542L344.863,74.659C350.951,77.76,355.117,84.085,355.117,91.387z"/>
		</g>
		<g>
			<path style="fill:#000B17;" d="M152.332,205.623h-0.423c-3.233,0-5.853-2.621-5.853-5.853v-31.978
				c0-3.233,2.621-5.853,5.853-5.853h0.423c0.325,0,0.589,0.264,0.589,0.589v42.507
				C152.921,205.359,152.657,205.623,152.332,205.623z"/>
			<path style="fill:#000B17;" d="M355.559,205.623h0.423c3.233,0,5.853-2.621,5.853-5.853v-31.978c0-3.233-2.621-5.853-5.853-5.853
				h-0.423c-0.325,0-0.589,0.264-0.589,0.589v42.507C354.971,205.359,355.234,205.623,355.559,205.623z"/>
			<path style="fill:#000B17;" d="M152.332,255.236h-0.423c-3.233,0-5.853-2.621-5.853-5.853v-31.978
				c0-3.233,2.621-5.853,5.853-5.853h0.423c0.325,0,0.589,0.264,0.589,0.589v42.507
				C152.921,254.972,152.657,255.236,152.332,255.236z"/>
		</g>
		<g>
			<path style="fill:#FFFFFF;" d="M345.76,92.2v329.04c0,5.64-4.58,10.22-10.22,10.22H172.5c-4.02,0-7.5-2.33-9.17-5.71
				c0-0.01-0.01-0.02-0.01-0.03c-0.67-1.35-1.04-2.87-1.04-4.48V92.2c0-5.64,4.58-10.22,10.22-10.22h163.04
				c1.77,0,3.44,0.45,4.89,1.24c0.01,0,0.01,0.01,0.02,0.01C343.61,84.97,345.76,88.34,345.76,92.2z"/>
			<g>
				<path style="fill:#D3E8EE;" d="M327.129,190.973H181.13c-6.179,0-11.188-5.009-11.188-11.188v-1.468
					c0-6.179,5.009-11.188,11.188-11.188h145.999c6.179,0,11.188,5.009,11.188,11.188v1.468
					C338.317,185.964,333.308,190.973,327.129,190.973z"/>
				<g>
					<path style="fill:#D3E8EE;" d="M333.119,308.891H175.141c-2.871,0-5.198-2.327-5.198-5.198l0,0
						c0-2.871,2.327-5.198,5.198-5.198h157.978c2.871,0,5.198,2.327,5.198,5.198l0,0
						C338.317,306.564,335.99,308.891,333.119,308.891z"/>
					<path style="fill:#D3E8EE;" d="M333.119,331.41H175.141c-2.871,0-5.198-2.327-5.198-5.198l0,0c0-2.871,2.327-5.198,5.198-5.198
						h157.978c2.871,0,5.198,2.327,5.198,5.198l0,0C338.317,329.082,335.99,331.41,333.119,331.41z"/>
					<path style="fill:#D3E8EE;" d="M333.119,353.928H175.141c-2.871,0-5.198-2.327-5.198-5.198l0,0
						c0-2.871,2.327-5.198,5.198-5.198h157.978c2.871,0,5.198,2.327,5.198,5.198l0,0
						C338.317,351.601,335.99,353.928,333.119,353.928z"/>
				</g>
				<path style="fill:#D3E8EE;" d="M297.975,361.185h-6.911c-0.499,0-0.936,0.334-1.067,0.815l-1.009,3.695h-63.53
					c-0.316,0-0.618,0.138-0.827,0.376c-0.207,0.238-0.302,0.556-0.258,0.871l1.017,7.303c-0.023,0.087-0.035,0.18-0.035,0.275
					c0,0.203,0.055,0.392,0.15,0.554l1.287,9.239l0.305,2.191l1.212,8.7l0.305,2.191l1.073,7.699
					c0.074,0.542,0.538,0.945,1.084,0.945h47.005l-1.532,5.501c-0.717,2.575-3.084,4.373-5.755,4.373h-33.465
					c-0.572,0-1.082,0.419-1.136,0.988c-0.061,0.653,0.449,1.201,1.09,1.201h4.167c-1.191,0.766-1.982,2.101-1.982,3.623
					c0,2.379,1.929,4.309,4.309,4.309c2.38,0,4.309-1.929,4.309-4.309c0-1.522-0.791-2.857-1.982-3.623h18.867
					c-1.191,0.766-1.982,2.101-1.982,3.623c0,2.379,1.929,4.309,4.309,4.309c2.379,0,4.309-1.929,4.309-4.309
					c0-1.522-0.791-2.857-1.982-3.623h1.172c3.65,0,6.885-2.457,7.865-5.974l1.88-6.751c0,0,0,0,0-0.001l0.001-0.001
					c0.02-0.044,0.036-0.09,0.048-0.138l2.184-7.842l0.609-2.191l2.424-8.7l0.609-2.191l2.505-8.993l0.307-1.101v-0.001l1.987-7.135
					c0.009-0.033,0.017-0.066,0.022-0.099l0.979-3.586h6.066c0.611,0,1.106-0.495,1.106-1.107
					C299.082,361.68,298.586,361.185,297.975,361.185z M279.938,398.313v0.004c-0.02,0.047-0.038,0.094-0.052,0.143l-1.501,5.388
					h-46.66l-0.898-6.453h49.368L279.938,398.313z M280.805,395.204h-50.284l-1.212-8.7h53.918L280.805,395.204z M283.838,384.314
					h-54.835l-1.209-8.699h58.466L283.838,384.314z M286.87,373.425h-59.382l-0.772-5.539h61.697L286.87,373.425z"/>
				<g>
					<path style="fill:#D3E8EE;" d="M299.41,281.703h-4.781c-20.045,0-36.446-16.401-36.446-36.446v-4.782
						c0-20.045,16.4-36.445,36.446-36.445h4.781c20.045,0,36.446,16.4,36.446,36.445v4.782
						C335.856,265.303,319.455,281.703,299.41,281.703z"/>
					<g>
						<g>
							<g>
								<path style="fill:#0172D2;" d="M320.317,267.102c-2.245-2.838-9.547-12.632-10.539-21.008
									c-0.372-3.196-0.323-6.373,0.427-9.078c1.612-5.811,3.408-9.862,3.485-10.043c0,0-3.602-5.865-3.414-17.303l-0.782-0.281
									c-1.202-0.431-2.513,0.257-2.842,1.491c-0.869,3.255-3.249,7.246-7.491,7.246c-4.57,0-6.89-3.985-8.098-7.4
									c-0.445-1.257-1.996-1.704-3.06-0.901l-1.516,1.145c0.638,3.367,1.741,11.933-2.221,17.146c0,0,6.172,11.145,3.954,17.977
									c-2.204,6.833-12.536,21.297-12.536,21.297s8.325,9.306,22.641,9.306c15.843,0,22.641-8.796,22.641-8.796
									S320.73,267.612,320.317,267.102z"/>
							</g>
						</g>
					</g>
				</g>
				<g>
					<path style="fill:#D3E8EE;" d="M211.17,281.703h-4.782c-20.045,0-36.445-16.401-36.445-36.446v-4.782
						c0-20.045,16.4-36.445,36.445-36.445h4.782c20.045,0,36.446,16.4,36.446,36.445v4.782
						C247.615,265.303,231.215,281.703,211.17,281.703z"/>
					<g>
						<g>
							<path style="fill:#FC5F2D;" d="M222.015,238.645c0.39,12.387,0.47,27.608,0.43,31.345c-9.76,2.522-19.508,2.53-29.245,0
								c-0.053-3.81-0.105-19.268,0.195-31.658c0.002-0.12,0.005-0.238,0.01-0.355v-0.003c-2.078-0.053-3.81-1.008-4.96-1.87
								c-0.968-0.72-1.52-1.377-1.52-1.377c2.09-5.403,6.69-11.563,7.682-12.79c0-0.003,0.003-0.003,0.003-0.005
								c0.002-0.002,0.002-0.002,0.002-0.002c0.645-0.91,2.998-2.408,5.468-3.842c0.442-0.258,0.915-0.455,1.405-0.588
								c0.49-0.132,0.995-0.2,1.507-0.2c0.28,0,0.508,0.227,0.508,0.507v0.023c0,2.592,2.15,4.685,4.762,4.592
								c2.488-0.09,4.425-2.21,4.425-4.697c0-0.003,0-0.003,0-0.005c0-0.232,0.188-0.42,0.418-0.42c0.805,0,1.592,0.215,2.285,0.625
								c2.335,1.378,4.6,2.842,5.26,3.77c0.935,1.155,5.625,7.76,7.83,13.005C227.33,236.318,223.885,238.193,222.015,238.645z"/>
						</g>
					</g>
				</g>
			</g>
			<path style="opacity:0.3;fill:#FFFFFF;" d="M345.76,92.2v329.04c0,5.64-4.58,10.22-10.22,10.22H172.5c-4.02,0-7.5-2.33-9.17-5.71
				c0-0.01-0.01-0.02-0.01-0.03l177.11-342.5c0.01,0,0.01,0.01,0.02,0.01C343.61,84.97,345.76,88.34,345.76,92.2z"/>
			<g>
				<path style="fill:#FFFFFF;" d="M369.632,134.285v23.982H138.62v-23.982h0.004c27.844-5.059,36.73-52.303,36.73-52.303h157.545
					C332.899,81.982,341.781,129.231,369.632,134.285z"/>
				<rect x="138.624" y="134.285" style="fill:#D3E8EE;" width="231.008" height="23.982"/>
				<path style="fill:#FC5F2D;" d="M204.689,81.982c0,0-8.886,47.249-36.733,52.303v23.982h-29.333v-23.982
					c27.848-5.054,36.73-52.303,36.73-52.303H204.689z"/>
				<path style="fill:#FC5F2D;" d="M369.639,134.285v23.982h-29.337v-23.982c-27.848-5.054-36.733-52.303-36.733-52.303h29.337
					C332.905,81.982,341.787,129.231,369.639,134.285z"/>
				<path style="fill:#FC5F2D;" d="M233.523,134.451v23.817h-27.488l-0.693-23.982c17.487-13.413,18.86-52.303,18.86-52.303h18.117
					C243.168,110.096,233.523,134.451,233.523,134.451z"/>
				<path style="fill:#FC5F2D;" d="M299.622,134.285l-0.693,23.982h-27.488v-23.817c0,0-9.645-24.354-8.796-52.468h18.117
					C280.761,81.982,282.138,120.872,299.622,134.285z"/>
				<rect x="138.624" y="134.285" style="fill:#D53E2F;" width="29.333" height="23.982"/>
				<polygon style="fill:#D53E2F;" points="369.639,134.285 369.639,158.267 340.302,158.267 340.302,134.285 369.632,134.285 				
					"/>
				<path style="fill:#D53E2F;" d="M233.589,134.285c-0.043,0.109-0.065,0.165-0.065,0.165v23.817h-27.488l-0.694-23.982H233.589z"
					/>
				<path style="fill:#D53E2F;" d="M299.623,134.285l-0.694,23.982h-27.488v-23.817c0,0-0.022-0.056-0.065-0.165H299.623z"/>
			</g>
		</g>
		<g>
			<path style="fill:#133643;" d="M301.837,98.52h-95.636c-4.912,0-8.931-4.019-8.931-8.931v-1.172c0-4.912,4.019-8.931,8.931-8.931
				h95.636c4.912,0,8.931,4.019,8.931,8.931v1.172C310.768,94.501,306.749,98.52,301.837,98.52z"/>
			<path style="fill:#000B17;" d="M281.12,90.095h-63.63c-1.208,0-2.196-0.988-2.196-2.196v-0.288c0-1.208,0.988-2.196,2.196-2.196
				h63.63c1.208,0,2.196,0.988,2.196,2.196v0.288C283.316,89.107,282.328,90.095,281.12,90.095z"/>
			<path style="fill:#335464;" d="M299.887,87.599c0,1.551-1.257,2.808-2.808,2.808c-1.551,0-2.808-1.257-2.808-2.808
				c0-1.551,1.257-2.808,2.808-2.808C298.63,84.79,299.887,86.048,299.887,87.599z"/>
		</g>
	</g>
	<g>
		<g>
			<path style="fill:#FFAA95;" d="M141.526,314.276c-0.293,5.421-0.62,11.261-0.964,17.345c-2.027,35.598-4.763,79.514-5.59,96.607
				l-6.546,0.428c0,0-3.853-46.277-3.83-62.194c0.01-6.622-0.609-16.825-1.451-28.172c-0.574-7.747-1.25-16.027-1.902-24.064
				L141.526,314.276z"/>
			<path style="fill:#FF8B6B;" d="M141.526,314.276c-0.293,5.421-0.682,12.349-1.026,18.434c-4.037,2.323-10.666,4.498-17.354,5.58
				c-0.574-7.747-1.25-16.027-1.902-24.064L141.526,314.276z"/>
			<g>
				<g>
					<path style="fill:#FC5F2D;" d="M130.996,424.703c0,0,3.877-0.852,4.936-0.783c1.059,0.068,7.802,8.321,10.171,8.895
						c4.296,1.041,4,7.808,1.348,8.027c-7.671,0.632-20.577-3.172-20.577-3.172s-0.815-8.737-0.171-11.438
						C127.346,423.529,128.829,425.409,130.996,424.703z"/>
					<g>
						<g>
							<path style="fill:#FFFFFF;" d="M136.981,432.397c-0.137,0.024-0.284-0.006-0.405-0.095c-0.235-0.174-0.285-0.504-0.111-0.74
								c0.058-0.078,1.439-1.931,3.073-2.525c2.173-0.792,3.634,0.557,3.696,0.615c0.212,0.2,0.222,0.535,0.021,0.747
								c-0.2,0.212-0.535,0.222-0.748,0.021c-0.04-0.036-1.06-0.95-2.608-0.389c-1.331,0.484-2.571,2.143-2.583,2.159
								C137.232,432.304,137.11,432.374,136.981,432.397z"/>
						</g>
						<g>
							<path style="fill:#FFFFFF;" d="M135.592,430.732c-0.137,0.024-0.284-0.006-0.405-0.095c-0.235-0.174-0.285-0.505-0.111-0.74
								c0.058-0.079,1.439-1.931,3.072-2.525c2.175-0.793,3.635,0.557,3.696,0.615c0.212,0.2,0.222,0.535,0.021,0.747
								c-0.2,0.212-0.535,0.222-0.748,0.021c-0.04-0.036-1.061-0.951-2.608-0.389c-1.337,0.486-2.57,2.142-2.583,2.159
								C135.842,430.639,135.721,430.709,135.592,430.732z"/>
						</g>
						<g>
							<path style="fill:#FFFFFF;" d="M138.961,433.849c-0.137,0.024-0.284-0.006-0.405-0.095c-0.235-0.174-0.285-0.505-0.111-0.74
								c0.058-0.079,1.439-1.931,3.073-2.525c2.175-0.793,3.635,0.557,3.696,0.615c0.212,0.201,0.222,0.535,0.021,0.747
								c-0.2,0.212-0.535,0.222-0.748,0.021c-0.04-0.036-1.061-0.951-2.608-0.389c-1.337,0.486-2.571,2.142-2.583,2.159
								C139.211,433.756,139.09,433.827,138.961,433.849z"/>
						</g>
					</g>
				</g>
			</g>
		</g>
		<g>
			<path style="fill:#FFAA95;" d="M117.51,314.215c-0.65,8.043-1.329,16.33-1.902,24.085c-0.005,0.056-0.008,0.112-0.013,0.168
				c-0.026,0.362-0.054,0.722-0.079,1.081c-0.793,10.84-1.367,20.538-1.359,26.913c0.023,15.917-3.83,62.194-3.83,62.194l-7.607-0.5
				c-0.765-15.848-2.795-54.741-4.452-88.681c-0.02-0.403-0.038-0.803-0.059-1.204c-0.015-0.332-0.033-0.663-0.049-0.992
				c-0.398-8.163-0.77-16.001-1.099-23.116L117.51,314.215z"/>
			<path style="fill:#FF8B6B;" d="M117.51,314.215c-0.65,8.043-1.329,16.33-1.902,24.085c-0.005,0.056-0.008,0.112-0.013,0.168
				c-4.916,0.326-12.271-0.12-17.434-1.188c-0.398-8.163-0.77-16.001-1.099-23.116L117.51,314.215z"/>
			<g>
				<g>
					<path style="fill:#FC5F2D;" d="M103.782,426.831c0,0-1.745-2.455-3.176-2.383c-1.43,0.072-12.641,8.59-16.432,9.23
						c-3.791,0.64-3.119,3.436-2.458,4.871c0.66,1.436,30.124,0.127,30.124,0.127s1-8.74,0.098-11.439
						C111.036,424.538,106.72,427.53,103.782,426.831z"/>
					<g>
						<g>
							<path style="fill:#FFFFFF;" d="M97.558,432.81c0.133,0.043,0.282,0.034,0.414-0.038c0.257-0.139,0.352-0.46,0.214-0.717
								c-0.046-0.086-1.155-2.113-2.69-2.929c-2.041-1.088-3.677,0.043-3.745,0.092c-0.238,0.169-0.295,0.499-0.125,0.737
								c0.168,0.238,0.499,0.294,0.737,0.125c0.045-0.03,1.183-0.793,2.637-0.021c1.25,0.665,2.246,2.481,2.256,2.499
								C97.323,432.684,97.433,432.77,97.558,432.81z"/>
						</g>
						<g>
							<path style="fill:#FFFFFF;" d="M99.167,431.356c0.132,0.043,0.282,0.034,0.414-0.038c0.257-0.139,0.352-0.46,0.214-0.717
								c-0.047-0.086-1.155-2.113-2.69-2.93c-2.043-1.089-3.677,0.043-3.746,0.092c-0.238,0.169-0.294,0.499-0.125,0.737
								c0.169,0.238,0.499,0.295,0.737,0.125c0.045-0.03,1.183-0.793,2.637-0.021c1.256,0.668,2.246,2.481,2.256,2.499
								C98.931,431.229,99.042,431.316,99.167,431.356z"/>
						</g>
						<g>
							<path style="fill:#FFFFFF;" d="M95.395,433.972c0.133,0.043,0.282,0.034,0.414-0.038c0.257-0.139,0.353-0.46,0.214-0.717
								c-0.047-0.086-1.155-2.113-2.69-2.93c-2.043-1.089-3.677,0.043-3.746,0.092c-0.238,0.169-0.294,0.499-0.125,0.737
								c0.169,0.238,0.499,0.295,0.737,0.125c0.045-0.03,1.184-0.793,2.637-0.021c1.256,0.668,2.246,2.481,2.256,2.499
								C95.16,433.845,95.27,433.931,95.395,433.972z"/>
						</g>
					</g>
				</g>
			</g>
		</g>
		<path style="fill:#133643;" d="M94.93,218.247c5.442,4.833,11.823,2.666,19.948-1.465c8.128-4.131,2.918,3.994,10.893,5.377
			c7.974,1.383,7.04-18.354,7.581-28.213c0.34-6.184,2.791-13.965,2.791-17.093v-0.042c0.042-0.519,0.065-1.038,0.069-1.549
			c0.062-7.505-4.565-21.213-20.84-19.034c0,0-13.504,1.541-15.041,14.738c0,0-0.64,6.088-1.066,10.497
			c-1.206,12.484-5.809,5.977-4.334,21.191C95.418,207.686,88.566,212.596,94.93,218.247z"/>
		<g>
			<g>
				<path style="fill:#D53E2F;" d="M144.416,208.501c0,0,2.877,24.428,6.164,36.132c0,0,4.67-2.176,10.783-5.129
					c6.628-3.202,16.157-9.044,16.157-9.044l2.408,5.801c0,0-24.614,23.231-32.767,24.546c-8.153,1.315-13.15-27.878-13.15-27.878
					L144.416,208.501z"/>
				<path style="fill:#FFAA95;" d="M177.015,231.14c0,0-0.676-3.239,0.773-5.431c1.449-2.192,3.656-6.296,6.247-7.153
					c2.168-0.717-1.031,2.942-1.126,5.264c0,0,3.224-0.405,5.55-1.16c2.046-0.664,6.093-1.493,7.97-1.863
					c0.514-0.101,0.844,0.547,0.449,0.89c-0.64,0.555-1.978,1.252-4.744,1.919c0,0,6.742-1.277,7.442-0.244
					c0.7,1.033-7.759,2.474-7.759,2.474s6.563-0.388,6.734,0.641c0.104,0.627-6.695,2.063-6.695,2.063s6.205,0.166,4.704,1.146
					c-0.437,0.285-12.45,1.637-16.632,6.575C179.928,236.262,177.115,233.354,177.015,231.14z"/>
			</g>
			<g>
				<g>
					<path style="fill:#004FC7;" d="M172.782,233.039c-0.329,0.282-0.665,0.565-1.009,0.854c-0.832-0.311-1.667-0.401-2.518-0.271
						c-0.644,0.096-1.294,0.316-1.96,0.661c-2.617,1.357-4.327,4.01-5.405,7.3c-1.665,5.08-1.827,11.683-1.506,17.385
						c0.38,6.799,1.379,11.915,1.403,12.047l-1.187,0.131c-0.102-0.507-0.956-4.93-1.376-11.144
						c-0.367-5.473-0.324-11.937,1.086-17.267c1.121-4.249,3.11-7.776,6.441-9.502c1.738-0.901,3.462-1.085,5.134-0.549
						C172.188,232.776,172.487,232.897,172.782,233.039z"/>
					<path style="fill:#004FC7;" d="M185.796,260.371l-1.164,0.216c-0.032-0.171-3.023-13.618-7.738-21.526
						c0.397-0.485,0.653-0.579,0.965-0.882C182.842,246.19,185.662,259.649,185.796,260.371z"/>
				</g>
				<g>
					<path style="fill:#0172D2;" d="M172.899,233.216c-0.371,0.224-0.836,0.496-1.126,0.677c0.008,0.002,0.013,0.006,0.021,0.008
						c-0.015,0.003-0.027,0.005-0.042,0.012c-0.549,0.11-1.102,0.313-1.665,0.606c-1.629,0.844-2.911,2.194-3.904,3.887
						c-2.657,4.53-3.27,11.538-3.118,17.949c0.181,8.04,1.562,15.15,1.589,15.298l-1.161,0.232
						c-0.115-0.577-1.343-6.909-1.617-14.341c-0.222-5.946,0.168-12.595,2.217-17.573c1.146-2.773,2.802-5.027,5.161-6.347
						c0.093-0.058,0.193-0.108,0.288-0.158c0.783-0.406,1.566-0.664,2.343-0.78c0.461-0.066,1.267,0.082,1.719,0.118
						C173.449,232.936,173.177,233.048,172.899,233.216z"/>
					<path style="fill:#0172D2;" d="M188.587,260.603l-1.164,0.216c-0.035-0.186-3.185-15.911-8.795-23.347
						c0.411-0.415,0.465-0.43,0.875-0.812C185.424,244.231,188.442,259.819,188.587,260.603z"/>
				</g>
				<polygon style="fill:#004FC7;" points="204.965,304.899 203.033,306.999 168.012,318.437 159.31,271.59 161.294,269.77 
					161.915,270.27 185.571,258.296 201.191,301.865 				"/>
				<polygon style="fill:#0172D2;" points="161.242,269.49 187.502,256.196 204.965,304.899 169.943,316.337 				"/>
			</g>
		</g>
		<g>
			<g>
				<g>
					<path style="fill:#D53E2F;" d="M49.03,279.033c-0.306,0.133-0.611,0.282-0.915,0.462c-3.227,1.912-5.015,5.549-5.894,9.852
						c-1.105,5.4-0.782,11.859-0.106,17.303c0.77,6.178,1.876,10.547,2.005,11.048l1.178-0.199
						c-0.032-0.129-1.317-5.182-2.083-11.947c-0.644-5.676-0.857-12.277,0.518-17.444c0.784-2.942,2.083-5.419,4.112-6.998
						c0.191-0.305,0.417-0.565,0.68-0.771c0.151-0.117,0.323-0.228,0.505-0.334V279.033z"/>
					<path style="fill:#D53E2F;" d="M68.667,305.512l-1.15,0.282c-0.041-0.169-3.266-13.01-8.421-20.638
						c0.246-0.357,0.482-0.703,0.713-1.036C65.238,291.836,68.492,304.799,68.667,305.512z"/>
				</g>
				<g>
					<path style="fill:#FC5F2D;" d="M47.018,283.728c-0.111,0.922-0.103,1.917,0.004,2.88c-1.622,4.558-1.725,10.614-1.279,16.182
						c0.639,8.017,2.418,15.038,2.456,15.183l-1.147,0.299c-0.147-0.571-1.733-6.823-2.426-14.23
						c-0.559-5.92-0.546-12.583,1.218-17.67C46.174,285.43,46.561,284.541,47.018,283.728z"/>
					<path style="fill:#FC5F2D;" d="M71.467,305.585l-1.149,0.282c-0.045-0.184-3.891-15.513-9.914-22.62
						c0.239-0.351,0.466-0.683,0.68-1.003C67.424,289.468,71.277,304.811,71.467,305.585z"/>
				</g>
				<g>
					<polygon style="fill:#D53E2F;" points="91.216,349.697 89.288,352.06 52.646,366.481 40.396,317.048 42.397,314.981 
						43.091,315.475 71.735,303.741 86.998,346.699 					"/>
					<polygon style="fill:#FC5F2D;" points="42.397,314.981 71.735,303.741 91.216,349.697 54.574,364.118 					"/>
				</g>
			</g>
			<g>
				<path style="fill:#D53E2F;" d="M93.504,206.865c0,0-5.052,38.32-9.862,46.878c0,0-15.211,19.667-23.293,26.382
					c1.133,3.231,2.873,5.475,5.456,6.863c0,0,22.473-16.853,28.121-26.136c6.21-9.96,9.109-26.758,9.294-33.642
					C103.221,227.209,99.484,216.253,93.504,206.865z"/>
				<path style="fill:#FFAA95;" d="M57.904,287.597c0.178,0.098-0.612,0.519-0.477,1.948c0.092,0.971,6.012,0.798,8.379-2.558
					l-5.456-6.863c0,0-7.872-2.487-11.123-1.387c-3.251,1.101-4.78,8.918-3.239,10.699c0,0,0.073,0.295,0.869-0.031
					c0,0,0.703,1.352,1.915,1.445c1.212,0.093,1.771-1.212,1.771-1.212s0.233,1.492,1.399,1.678
					c1.165,0.186,1.725-1.678,1.725-1.678s0.789,1.884,1.928,1.691C57.326,291.036,57.187,287.203,57.904,287.597z"/>
			</g>
			<g>
				<g>
					<path style="fill:#004FC7;" d="M54.196,278.698c-1.866-0.281-3.744-0.376-4.97,0.038c-0.316,0.107-0.616,0.278-0.897,0.502
						c-2.438,0.818-4.483,2.725-6.198,5.241c-3.009,4.42-4.995,10.719-6.267,16.288c-1.518,6.637-1.979,11.83-1.992,11.963
						l-1.178-0.202c0.044-0.515,0.448-5.004,1.768-11.088c1.165-5.361,2.999-11.562,5.831-16.291
						c2.254-3.77,5.146-6.608,8.824-7.344C51.036,277.422,52.741,277.722,54.196,278.698z"/>
					<path style="fill:#004FC7;" d="M59.892,309.16l-1.178-0.115c0.017-0.173,1.186-12.348-1.151-21.253
						c0.418-0.805,0.957-0.927,1.307-0.805C61.437,296.065,59.963,308.43,59.892,309.16z"/>
				</g>
				<g>
					<path style="fill:#0172D2;" d="M46.682,281.435c-0.41,0.833-0.732,1.774-0.95,2.718c-3.04,3.763-5.143,9.443-6.567,14.845
						c-2.052,7.776-2.699,14.99-2.712,15.139l-1.181-0.098c0.051-0.587,0.625-7.012,2.425-14.229
						c1.433-5.771,3.653-12.054,7.003-16.269C45.321,282.761,45.981,282.051,46.682,281.435z"/>
					<path style="fill:#0172D2;" d="M62.51,310.156l-1.178-0.115c0.018-0.188,1.467-15.926-1.861-24.626
						c0.255-0.554,0.601-0.717,0.974-0.721C64.034,293.61,62.587,309.363,62.51,310.156z"/>
				</g>
				<g>
					<polygon style="fill:#004FC7;" points="66.532,358.32 63.93,359.911 23.64,361.415 28.4,311.178 31.969,309.392 32.46,310.089 
						63.374,308.506 63.546,354.094 					"/>
					<polygon style="fill:#0172D2;" points="31.969,309.392 63.374,308.506 66.532,358.32 27.182,359.789 					"/>
				</g>
			</g>
		</g>
		<g>
			<g>
				<path style="fill:#FC5F2D;" d="M143.9,296.832l0.11,0.487c-10.723,7.26-50.832,2.303-50.832,2.303
					c0.069-0.842,0.158-1.721,0.275-2.632c0.125-1.015,0.281-2.065,0.459-3.152c0.484-2.92,1.135-6.077,1.864-9.325
					c0.235-1.023,0.469-2.061,0.716-3.103c0.724-3.101,1.494-6.245,2.224-9.307c0.253-1.053,0.5-2.091,0.74-3.124
					c0.334-1.433,0.65-2.843,0.954-4.21c0.395-1.818,0.747-3.565,1.043-5.21c0.199-1.107,0.372-2.167,0.505-3.175
					c0.153-1.066,0.258-2.073,0.321-3.006c-0.637-2.356-1.232-4.664-1.785-6.903c-0.275-1.14-0.546-2.254-0.811-3.356
					c-0.824-3.527-1.548-6.883-2.18-10.027c-0.224-1.142-0.446-2.254-0.648-3.338c-0.701-3.708-1.267-7.063-1.724-9.991
					c-0.176-1.168-0.342-2.257-0.487-3.284c-0.161-1.124-0.298-2.165-0.418-3.108c-0.538-4.151-0.724-6.505-0.724-6.505
					c0.094-0.077,0.194-0.145,0.296-0.219c1.216-0.864,3.119-1.678,5.233-2.4c2.231-0.765,4.7-1.431,6.875-1.956
					c0.329-0.079,0.653-0.156,0.969-0.229c2.858-0.668,4.995-1.056,4.995-1.056c9.726,2.038,12.5,0.727,12.5,0.727l4.945,1.459
					l0.581,0.204l3.603,1.265l0.145,0.053l6.462,2.275l4.31,1.512l-1.673,7.714l-0.729,3.369l-2.203,10.154l-0.724,3.356
					l-2.193,10.118l-0.722,3.323l-1.816,8.384l0.362,1.601l0.709,3.108l1.125,4.942l1.023,4.47l0.704,3.098l2.117,9.32l0.706,3.08
					l2.099,9.213L143.9,296.832z"/>
				<path style="fill:#FFAA95;" d="M129.895,203.395c-1.035,6.079-3.56,14.226-9.687,14.887
					c-7.403,0.801-11.664-10.516-13.334-16.221c2.858-0.668,5.821-1.321,5.821-1.321c9.726,2.038,11.603,0.796,11.603,0.796
					l5.016,1.654L129.895,203.395z"/>
				<g>
					<path style="fill:#FFFFFF;" d="M119.032,211.143c-7.758,0-9.613-9.581-9.632-9.68c-0.038-0.208,0.099-0.407,0.307-0.445
						c0.208-0.038,0.407,0.099,0.446,0.307c0.071,0.385,1.831,9.426,9.33,9.043c6.563-0.332,6.949-7.616,6.962-7.926
						c0.009-0.211,0.185-0.376,0.398-0.366c0.211,0.009,0.375,0.187,0.366,0.398c-0.003,0.083-0.425,8.291-7.688,8.658
						C119.356,211.139,119.193,211.143,119.032,211.143z"/>
				</g>
				<path style="fill:#D53E2F;" d="M105.115,208.501c0,1.046-0.848,1.894-1.894,1.894c-1.046,0-1.894-0.848-1.894-1.894
					c0-1.046,0.848-1.894,1.894-1.894C104.267,206.608,105.115,207.456,105.115,208.501z"/>
				<path style="fill:#D53E2F;" d="M101.322,217.742c0,1.046-0.848,1.894-1.894,1.894s-1.894-0.848-1.894-1.894
					s0.848-1.894,1.894-1.894S101.322,216.696,101.322,217.742z"/>
				<path style="fill:#D53E2F;" d="M113.413,222.11c0,1.046-0.848,1.894-1.894,1.894c-1.046,0-1.894-0.848-1.894-1.894
					c0-1.046,0.848-1.894,1.894-1.894C112.566,220.216,113.413,221.064,113.413,222.11z"/>
				<path style="fill:#D53E2F;" d="M104.98,227.276c0.388,0.971-0.085,2.073-1.056,2.461c-0.971,0.388-2.073-0.085-2.461-1.056
					c-0.388-0.971,0.085-2.073,1.056-2.461C103.49,225.832,104.592,226.305,104.98,227.276z"/>
				<path style="fill:#D53E2F;" d="M121.396,230.774c0,1.046-0.848,1.894-1.894,1.894c-1.046,0-1.894-0.848-1.894-1.894
					s0.848-1.894,1.894-1.894C120.548,228.88,121.396,229.728,121.396,230.774z"/>
				<path style="fill:#D53E2F;" d="M133.474,234.676c0,1.046-0.848,1.894-1.894,1.894s-1.894-0.848-1.894-1.894
					s0.848-1.894,1.894-1.894S133.474,233.63,133.474,234.676z"/>
				<circle style="fill:#D53E2F;" cx="134.011" cy="210.395" r="1.894"/>
				<path style="fill:#D53E2F;" d="M122.162,242.867c0,1.046-0.848,1.894-1.894,1.894s-1.894-0.848-1.894-1.894
					c0-1.046,0.848-1.894,1.894-1.894S122.162,241.821,122.162,242.867z"/>
				<path style="fill:#D53E2F;" d="M110.495,248.739c0,1.046-0.848,1.894-1.894,1.894s-1.894-0.848-1.894-1.894
					c0-1.046,0.848-1.894,1.894-1.894S110.495,247.693,110.495,248.739z"/>
				<path style="fill:#D53E2F;" d="M109.136,238.045c0,1.046-0.848,1.894-1.894,1.894s-1.894-0.848-1.894-1.894
					s0.848-1.894,1.894-1.894S109.136,236.999,109.136,238.045z"/>
				<path style="fill:#D53E2F;" d="M127.793,222.605c0,1.046-0.848,1.894-1.894,1.894c-1.046,0-1.894-0.848-1.894-1.894
					c0-1.046,0.848-1.894,1.894-1.894C126.945,220.712,127.793,221.559,127.793,222.605z"/>
				<path style="fill:#D53E2F;" d="M138.264,220.216c0,1.046-0.848,1.894-1.894,1.894c-1.046,0-1.894-0.848-1.894-1.894
					c0-1.046,0.848-1.894,1.894-1.894C137.416,218.323,138.264,219.171,138.264,220.216z"/>
				<path style="fill:#D53E2F;" d="M131.58,246c0,1.046-0.848,1.894-1.894,1.894s-1.894-0.848-1.894-1.894
					c0-1.046,0.848-1.894,1.894-1.894S131.58,244.954,131.58,246z"/>
				<path style="fill:#D53E2F;" d="M132.088,260.984c0,1.046-0.848,1.894-1.894,1.894c-1.046,0-1.894-0.848-1.894-1.894
					c0-1.046,0.848-1.894,1.894-1.894C131.241,259.09,132.088,259.938,132.088,260.984z"/>
				<path style="fill:#D53E2F;" d="M122.449,254.732c0.388,0.971-0.085,2.073-1.056,2.461c-0.971,0.388-2.073-0.085-2.461-1.056
					c-0.388-0.971,0.085-2.073,1.056-2.461C120.959,253.288,122.061,253.761,122.449,254.732z"/>
				<path style="fill:#D53E2F;" d="M109.557,260.281c0.388,0.971-0.085,2.073-1.056,2.461c-0.971,0.388-2.073-0.085-2.461-1.056
					c-0.388-0.971,0.085-2.073,1.056-2.461C108.067,258.837,109.169,259.31,109.557,260.281z"/>
			</g>
			<path style="fill:#FC5F2D;" d="M148.341,323.271c-17.226,10.782-43.285,9.724-58.396,2.63l0.458-3.735l0.391-3.173l1.155-9.399
				l0.392-3.17l0.837-6.804l13.017-0.587l35.162-1.595l2.652-0.12l1.459,8.749l0.524,3.135l1.528,9.153l0.524,3.151L148.341,323.271
				z"/>
			<g>
				<path style="fill:#0172D2;" d="M148.342,323.267c-17.23,10.786-43.293,9.727-58.39,2.641l0.447-3.745l0.134-1.059L90.787,319
					l0.06-0.477l0.179-1.492l0.925-7.444l0.075-0.627l0.179-1.477l0.134-1.059l0.835-6.803c0-0.075,0.015-0.134,0.015-0.209
					c0.045-0.492,0.104-0.985,0.149-1.492c0.045-0.298,0.075-0.612,0.119-0.925c0.119-1.029,0.269-2.074,0.447-3.163
					c0.209-1.253,0.448-2.551,0.716-3.879c0.09-0.477,0.194-0.955,0.298-1.447c0.269-1.313,0.552-2.641,0.85-3.998
					c0.239-1.014,0.477-2.059,0.716-3.103c0.06-0.254,0.119-0.492,0.179-0.746c0.119-0.477,0.224-0.97,0.343-1.462
					c0.567-2.372,1.149-4.759,1.701-7.101c0.06-0.239,0.119-0.462,0.164-0.701c0.119-0.492,0.239-0.985,0.358-1.477
					c0.075-0.313,0.149-0.627,0.224-0.94c0.328-1.432,0.656-2.849,0.955-4.207c6.713,1.507,21.855,4.013,36.147-0.209l0.91,4.013
					l0.104,0.463l0.224,1.014l0.477,2.089l1.298,5.714l0.343,1.477l0.477,2.118l0.701,3.088l0.582,2.581l0.343,1.477l1.179,5.162
					l0.597,2.641l0.104,0.433l0.119,0.492l0.09,0.567l1.328,7.981l0.03,0.194l0.224,1.313l0.298,1.82l1.029,6.161l0.254,1.492
					l0.254,1.507l0.03,0.224l0.492,2.924L148.342,323.267z"/>
				<g>
					<g>
						<path style="fill:#004FC7;" d="M137.795,270.054c-5.893,2.521-12.904,3.327-19.483,3.327c-7.966,0-15.336-1.178-19.438-1.984
							c0.119-0.492,0.239-0.985,0.358-1.477c7.444,1.432,25.764,4.073,38.235-1.343l0.104,0.463L137.795,270.054z"/>
					</g>
					<g>
						<path style="fill:#004FC7;" d="M139.913,279.333c-6.862,2.864-14.605,3.789-21.751,3.789c-9.026,0-17.156-1.477-21.497-2.462
							c0.119-0.477,0.224-0.97,0.343-1.462c7.698,1.671,27.569,4.983,42.562-1.343L139.913,279.333z"/>
					</g>
					<g>
						<path style="fill:#004FC7;" d="M142.016,288.597c-7.743,3.148-16.201,4.192-23.944,4.192c-10.025,0-18.842-1.73-23.451-2.834
							c0.09-0.477,0.194-0.955,0.298-1.447c7.996,1.909,29.27,5.833,46.754-1.387L142.016,288.597z"/>
					</g>
					<g>
						<path style="fill:#004FC7;" d="M144.105,297.891c-8.727,3.476-17.917,4.625-26.226,4.625c-10.547,0-19.677-1.835-24.69-3.103
							c0.045-0.492,0.104-0.985,0.149-1.492c8.667,2.193,30.836,6.43,50.453-1.522l0.104,0.433l0.119,0.492L144.105,297.891z"/>
					</g>
					<g>
						<path style="fill:#004FC7;" d="M145.686,307.379c-9.548,3.655-19.289,4.878-28.031,4.878c-10.875,0-20.199-1.88-25.63-3.297
							l0.179-1.477c9.533,2.476,31.955,6.668,53.228-1.611l0.03,0.194L145.686,307.379z"/>
					</g>
					<g>
						<path style="fill:#004FC7;" d="M147.268,316.852c-10.338,3.849-20.662,5.132-29.836,5.132
							c-11.248,0-20.781-1.924-26.584-3.461l0.179-1.492c10.279,2.745,33.104,6.922,55.988-1.671L147.268,316.852z"/>
					</g>
				</g>
				<path style="fill:#004FC7;" d="M148.34,323.271c-17.226,10.782-43.285,9.724-58.396,2.63l0.458-3.735l0.129-1.061
					c4.101,1.774,13.535,4.935,28.611,4.821c14.261-0.108,23.786-4.534,28.415-7.347l0.486,2.927L148.34,323.271z"/>
			</g>
		</g>
		<g>
			<g>
				<g>
					<path style="fill:#FF8B6B;" d="M130.616,177.719c0,0,2.325-2.945,4.053-0.51c1.729,2.436-0.715,9.629-4.948,7.873
						L130.616,177.719z"/>
					<path style="fill:#FFFFFF;" d="M131.615,184.582c0,0.427,0.346,0.773,0.773,0.773c0.427,0,0.773-0.346,0.773-0.773
						c0-0.427-0.346-0.773-0.773-0.773C131.962,183.808,131.615,184.154,131.615,184.582z"/>
					<g>
						<path style="fill:#D85C48;" d="M130.646,182.859c0.156,0,0.3-0.098,0.344-0.248c0.656-2.221,3.077-3.121,3.102-3.13
							c0.184-0.067,0.277-0.263,0.207-0.438c-0.07-0.175-0.276-0.264-0.461-0.198c-0.113,0.041-2.782,1.025-3.537,3.582
							c-0.053,0.181,0.058,0.368,0.248,0.419C130.581,182.855,130.613,182.859,130.646,182.859z"/>
					</g>
					<g>
						<path style="fill:#D85C48;" d="M133.09,181.74c0.066,0,0.133-0.018,0.193-0.054c0.166-0.102,0.214-0.312,0.107-0.47
							c-0.018-0.026-0.446-0.647-1.342-1.028c-0.179-0.077-0.392,0-0.472,0.171c-0.081,0.171,0,0.372,0.18,0.449
							c0.693,0.295,1.03,0.771,1.033,0.776C132.857,181.685,132.972,181.74,133.09,181.74z"/>
					</g>
				</g>
				<path style="fill:#FFAA95;" d="M112.695,192.766v8.824c0,0,4.102,3.165,7.301,3.44c3.196,0.279,4.301-3.493,4.301-3.493v-8.213
					L112.695,192.766z"/>
				<path style="fill:#FF8B6B;" d="M112.695,193.631v3.52c2.147,2.383,5.959,3.227,11.601,2.394l0.001-5.356L112.695,193.631z"/>
				<path style="fill:#FFAA95;" d="M132.013,181.073c-0.102,0.852-0.222,1.719-0.376,2.582c-1.013,5.738-4.643,11.937-9.227,12.977
					c-9.896,2.246-14.006-5.527-15.588-11.261c-0.175-0.637,0.153-1.367,0.015-2.121c-0.328-1.787-1.05-3.817-1.214-5.819
					c-0.113-1.387-0.193-2.756-0.252-3.993c-0.16-3.487,1.859-6.692,5.016-7.944c4.549-1.81,11.458-3.242,18.001,0.596
					c2.417,1.418,3.934,4.042,3.988,6.914C132.417,175.199,132.363,178.068,132.013,181.073z"/>
				<g>
					<g>
						<g>
							<path style="fill:#FF8B6B;" d="M119.936,185.513c-0.184,0-0.347-0.133-0.379-0.32c-0.035-0.209,0.106-0.408,0.315-0.443
								l1.32-0.222l-1.819-4.844c-0.075-0.199,0.026-0.42,0.225-0.495c0.199-0.074,0.421,0.026,0.495,0.225l2.147,5.718l-2.24,0.376
								C119.978,185.512,119.957,185.513,119.936,185.513z"/>
						</g>
					</g>
				</g>
				<path style="fill:#133643;" d="M128.201,171.407c3.869,1.764,2.64,6.36,3.947,8.666c0.084,0.15,0.173,0.177,0.265,0.1
					c0.369-3.063,0.427-5.987,0.384-8.224c-0.058-2.928-1.656-5.603-4.204-7.048c-6.898-3.912-14.181-2.452-18.976-0.607
					c-3.328,1.276-5.457,4.542-5.288,8.097c0.061,1.26,0.146,2.655,0.265,4.07c0.642,0.382,2.211,0.557,2.276,1.589
					c0.174,2.73,0.307,4.598,0.878,4.435c0.961-0.277,1.558-3.583,0.459-5.72c0,0,0.884-1.439,4.488-2.828
					c4.623-1.782,9.074-4.419,9.074-4.419s1.756-1.057,2.429-2.21C124.197,167.306,125.255,170.063,128.201,171.407z"/>
				<path style="fill:#133643;" d="M124.438,179.104c0,0.847,0.437,1.533,0.975,1.533c0.538,0,0.975-0.687,0.975-1.533
					c0-0.847-0.436-1.534-0.975-1.534C124.875,177.571,124.438,178.257,124.438,179.104z"/>
				<path style="fill:#133643;" d="M113.902,179.104c0,0.847,0.436,1.533,0.975,1.533c0.538,0,0.975-0.687,0.975-1.533
					c0-0.847-0.437-1.534-0.975-1.534C114.339,177.571,113.902,178.257,113.902,179.104z"/>
				<path style="fill:#133643;" d="M128.038,175.083c-0.784-0.153-2.369-0.405-4.057-0.346c-0.444,0.016-0.8,0.35-0.739,0.704
					l0.001,0.009c0.049,0.282,0.352,0.472,0.707,0.445c1.151-0.087,4.16-0.068,5.561,0.349c0.039-0.203-0.097-0.418-0.294-0.607
					C128.918,175.352,128.496,175.172,128.038,175.083z"/>
				<path style="fill:#133643;" d="M112.366,175.267c0.782-0.164,2.363-0.437,4.052-0.401c0.444,0.01,0.805,0.34,0.748,0.694
					l-0.002,0.009c-0.045,0.283-0.345,0.477-0.7,0.455c-1.152-0.071-4.16-0.011-5.556,0.425c-0.042-0.202,0.091-0.419,0.286-0.611
					C111.49,175.548,111.909,175.363,112.366,175.267z"/>
				<path style="fill:#FFFFFF;" d="M124.197,187.802c-0.285,1.348-1.232,3.827-4.422,3.827c-3.198,0-4.095-2.266-4.403-3.827
					H124.197z"/>
				<g>
					<path style="fill:#FF8B6B;" d="M119.821,193.946c0.921,0,1.733-0.496,1.768-0.517c0.177-0.109,0.232-0.342,0.122-0.519
						c-0.109-0.177-0.341-0.231-0.518-0.123l0,0c-0.007,0.004-0.67,0.405-1.372,0.405c-0.76,0-1.441-0.402-1.448-0.407
						c-0.179-0.107-0.41-0.049-0.517,0.129c-0.107,0.178-0.051,0.409,0.127,0.517C118.018,193.452,118.845,193.946,119.821,193.946z
						"/>
				</g>
			</g>
			<g>
				<path style="fill:#FFAA95;" d="M106.777,177.695c0,0-2.703-3.28-4.298-0.915c-1.595,2.365,0.66,9.35,4.565,7.645
					L106.777,177.695z"/>
				<path style="fill:#FFFFFF;" d="M104.589,184.582c0,0.427,0.346,0.773,0.773,0.773s0.773-0.346,0.773-0.773
					c0-0.427-0.346-0.773-0.773-0.773S104.589,184.154,104.589,184.582z"/>
				<g>
					<path style="fill:#FF8B6B;" d="M106.191,182.266c-0.144,0-0.277-0.096-0.318-0.241c-0.605-2.157-2.84-3.031-2.862-3.04
						c-0.17-0.065-0.256-0.255-0.191-0.425c0.064-0.17,0.255-0.256,0.425-0.192c0.104,0.04,2.567,0.995,3.264,3.478
						c0.049,0.176-0.053,0.358-0.229,0.407C106.251,182.262,106.221,182.266,106.191,182.266z"/>
				</g>
				<g>
					<g>
						<g>
							<path style="fill:#FF8B6B;" d="M103.936,181.18c-0.061,0-0.123-0.017-0.178-0.053c-0.153-0.099-0.197-0.303-0.099-0.456
								c0.016-0.025,0.412-0.628,1.239-0.998c0.166-0.075,0.361,0,0.436,0.166c0.074,0.166,0,0.361-0.167,0.436
								c-0.639,0.286-0.95,0.749-0.953,0.753C104.151,181.126,104.045,181.18,103.936,181.18z"/>
						</g>
					</g>
				</g>
			</g>
		</g>
	</g>
	<g>
		<g>
			<path style="fill:#FC5F2D;" d="M422.734,206.464H322.73c-1.448,0-2.621-1.174-2.621-2.621V187.33
				c0-1.448,1.174-2.621,2.621-2.621h100.004c1.448,0,2.621,1.174,2.621,2.621v16.512
				C425.356,205.29,424.182,206.464,422.734,206.464z"/>
			<path style="fill:#FC9749;" d="M414.282,201.321h-0.76c-3.199,0-5.792-2.593-5.792-5.792v-0.76c0-3.199,2.593-5.792,5.792-5.792
				h0.76c3.199,0,5.792,2.593,5.792,5.792v0.76C420.074,198.727,417.481,201.321,414.282,201.321z"/>
			<g>
				<path style="fill:#FC9749;" d="M397.409,191.312h-69.425c-0.605,0-1.096-0.491-1.096-1.096v-0.144
					c0-0.605,0.491-1.096,1.096-1.096h69.425c0.605,0,1.096,0.491,1.096,1.096v0.144
					C398.505,190.821,398.015,191.312,397.409,191.312z"/>
				<path style="fill:#FC9749;" d="M397.409,196.316h-69.425c-0.605,0-1.096-0.491-1.096-1.096v-0.144
					c0-0.605,0.491-1.096,1.096-1.096h69.425c0.605,0,1.096,0.491,1.096,1.096v0.144
					C398.505,195.826,398.015,196.316,397.409,196.316z"/>
				<path style="fill:#FC9749;" d="M397.409,201.321h-69.425c-0.605,0-1.096-0.491-1.096-1.096v-0.144
					c0-0.605,0.491-1.096,1.096-1.096h69.425c0.605,0,1.096,0.491,1.096,1.096v0.144
					C398.505,200.83,398.015,201.321,397.409,201.321z"/>
			</g>
		</g>
		<g>
			<path style="fill:#0172D2;" d="M423.261,238.395H323.257c-1.448,0-2.621-1.174-2.621-2.621v-16.512
				c0-1.448,1.174-2.621,2.621-2.621h100.004c1.448,0,2.621,1.174,2.621,2.621v16.512
				C425.882,237.221,424.709,238.395,423.261,238.395z"/>
			<path style="fill:#0096E2;" d="M414.282,233.68h-0.76c-3.199,0-5.792-2.593-5.792-5.792v-0.76c0-3.199,2.593-5.792,5.792-5.792
				h0.76c3.199,0,5.792,2.593,5.792,5.792v0.76C420.074,231.087,417.481,233.68,414.282,233.68z"/>
			<g>
				<g>
					<path style="fill:#0096E2;" d="M397.409,223.68h-69.425c-0.605,0-1.096-0.491-1.096-1.096v-0.144
						c0-0.605,0.491-1.096,1.096-1.096h69.425c0.605,0,1.096,0.491,1.096,1.096v0.144C398.505,223.19,398.015,223.68,397.409,223.68
						z"/>
					<path style="fill:#0096E2;" d="M397.409,228.685h-69.425c-0.605,0-1.096-0.491-1.096-1.096v-0.144
						c0-0.605,0.491-1.096,1.096-1.096h69.425c0.605,0,1.096,0.49,1.096,1.096v0.144
						C398.505,228.194,398.015,228.685,397.409,228.685z"/>
					<path style="fill:#0096E2;" d="M397.409,233.689h-69.425c-0.605,0-1.096-0.491-1.096-1.096v-0.144
						c0-0.605,0.491-1.096,1.096-1.096h69.425c0.605,0,1.096,0.491,1.096,1.096v0.144
						C398.505,233.199,398.015,233.689,397.409,233.689z"/>
				</g>
			</g>
		</g>
	</g>
	<g>
		<g>
			<g>
				<path style="fill:#0172D2;" d="M395.039,142.974c0-3.127,2.544-5.67,5.67-5.67s5.67,2.544,5.67,5.67
					c0,3.126-2.544,5.67-5.67,5.67S395.039,146.1,395.039,142.974z M396.818,142.974c0,2.146,1.746,3.891,3.891,3.891
					c2.146,0,3.891-1.746,3.891-3.891c0-2.146-1.746-3.891-3.891-3.891C398.564,139.083,396.818,140.828,396.818,142.974z"/>
			</g>
			<g>
				<path style="fill:#0172D2;" d="M405.104,118.898c0-3.127,2.544-5.67,5.67-5.67s5.67,2.544,5.67,5.67
					c0,3.126-2.544,5.67-5.67,5.67S405.104,122.024,405.104,118.898z M406.883,118.898c0,2.146,1.746,3.891,3.891,3.891
					c2.146,0,3.891-1.746,3.891-3.891c0-2.146-1.746-3.891-3.891-3.891C408.629,115.007,406.883,116.752,406.883,118.898z"/>
			</g>
			<g>
				<g>
					<g>
						<g>
							<g>
								<path style="fill:#FC5F2D;" d="M388.537,165.524c0.491,0,0.889-0.398,0.889-0.889v-3.923c0-0.491-0.398-0.889-0.889-0.889
									c-0.491,0-0.889,0.398-0.889,0.889v3.923C387.648,165.126,388.046,165.524,388.537,165.524z"/>
							</g>
						</g>
						<g>
							<g>
								<path style="fill:#FC5F2D;" d="M388.537,172.388c0.491,0,0.889-0.398,0.889-0.889v-3.922c0-0.491-0.398-0.889-0.889-0.889
									c-0.491,0-0.889,0.398-0.889,0.889v3.922C387.648,171.99,388.046,172.388,388.537,172.388z"/>
							</g>
						</g>
					</g>
					<g>
						<g>
							<g>
								<path style="fill:#FC5F2D;" d="M383.032,166.995h3.523c0.491,0,0.889-0.398,0.889-0.889c0-0.491-0.398-0.889-0.889-0.889
									h-3.523c-0.491,0-0.889,0.398-0.889,0.889C382.142,166.597,382.541,166.995,383.032,166.995z"/>
							</g>
						</g>
						<g>
							<g>
								<path style="fill:#FC5F2D;" d="M390.519,166.995h3.523c0.491,0,0.889-0.398,0.889-0.889c0-0.491-0.398-0.889-0.889-0.889
									h-3.523c-0.491,0-0.889,0.398-0.889,0.889C389.63,166.597,390.028,166.995,390.519,166.995z"/>
							</g>
						</g>
					</g>
				</g>
			</g>
			<g>
				<g>
					<g>
						<g>
							<path style="fill:#FC5F2D;" d="M429.365,137.415c0.491,0,0.889-0.398,0.889-0.889v-3.923c0-0.491-0.398-0.889-0.889-0.889
								s-0.889,0.398-0.889,0.889v3.923C428.476,137.016,428.874,137.415,429.365,137.415z"/>
						</g>
						<g>
							<path style="fill:#FC5F2D;" d="M429.365,144.279c0.491,0,0.889-0.398,0.889-0.889v-3.922c0-0.491-0.398-0.889-0.889-0.889
								s-0.889,0.398-0.889,0.889v3.922C428.476,143.881,428.874,144.279,429.365,144.279z"/>
						</g>
					</g>
					<g>
						<g>
							<path style="fill:#FC5F2D;" d="M423.86,138.886h3.523c0.491,0,0.889-0.398,0.889-0.889c0-0.491-0.398-0.889-0.889-0.889
								h-3.523c-0.491,0-0.889,0.398-0.889,0.889C422.97,138.487,423.369,138.886,423.86,138.886z"/>
						</g>
						<g>
							<path style="fill:#FC5F2D;" d="M431.347,138.886h3.524c0.491,0,0.889-0.398,0.889-0.889c0-0.491-0.398-0.889-0.889-0.889
								h-3.524c-0.491,0-0.889,0.398-0.889,0.889C430.458,138.487,430.856,138.886,431.347,138.886z"/>
						</g>
					</g>
				</g>
			</g>
		</g>
		<g>
			<g>
				<path style="fill:#0172D2;" d="M75.037,149.302c0-3.127,2.544-5.67,5.67-5.67c3.126,0,5.67,2.544,5.67,5.67
					c0,3.126-2.544,5.67-5.67,5.67C77.58,154.972,75.037,152.428,75.037,149.302z M76.815,149.302c0,2.146,1.746,3.891,3.891,3.891
					s3.891-1.746,3.891-3.891c0-2.146-1.746-3.892-3.891-3.892S76.815,147.156,76.815,149.302z"/>
			</g>
			<g>
				<path style="fill:#FC5F2D;" d="M54.417,191.512c0-3.127,2.544-5.67,5.67-5.67s5.67,2.544,5.67,5.67
					c0,3.126-2.544,5.67-5.67,5.67S54.417,194.639,54.417,191.512z M56.196,191.512c0,2.146,1.746,3.891,3.891,3.891
					c2.146,0,3.891-1.746,3.891-3.891c0-2.146-1.746-3.892-3.891-3.892C57.942,187.621,56.196,189.367,56.196,191.512z"/>
			</g>
			<g>
				<g>
					<g>
						<path style="fill:#0172D2;" d="M75.037,174.102c0.491,0,0.889-0.398,0.889-0.889v-3.923c0-0.491-0.398-0.889-0.889-0.889
							c-0.491,0-0.889,0.398-0.889,0.889v3.923C74.147,173.704,74.545,174.102,75.037,174.102z"/>
					</g>
					<g>
						<path style="fill:#0172D2;" d="M75.037,180.966c0.491,0,0.889-0.398,0.889-0.889v-3.922c0-0.491-0.398-0.889-0.889-0.889
							c-0.491,0-0.889,0.398-0.889,0.889v3.922C74.147,180.568,74.545,180.966,75.037,180.966z"/>
					</g>
				</g>
				<g>
					<g>
						<path style="fill:#0172D2;" d="M69.531,175.573h3.524c0.491,0,0.889-0.398,0.889-0.889c0-0.491-0.398-0.89-0.889-0.89h-3.524
							c-0.491,0-0.889,0.398-0.889,0.89C68.641,175.175,69.04,175.573,69.531,175.573z"/>
					</g>
					<g>
						<path style="fill:#0172D2;" d="M77.019,175.573h3.523c0.491,0,0.889-0.398,0.889-0.889c0-0.491-0.398-0.89-0.889-0.89h-3.523
							c-0.491,0-0.889,0.398-0.889,0.89C76.129,175.175,76.527,175.573,77.019,175.573z"/>
					</g>
				</g>
			</g>
			<g>
				<g>
					<g>
						<g>
							<path style="fill:#FC5F2D;" d="M64.727,134.552c0.491,0,0.889-0.398,0.889-0.889v-3.922c0-0.491-0.398-0.89-0.889-0.89
								c-0.491,0-0.889,0.398-0.889,0.89v3.922C63.838,134.154,64.236,134.552,64.727,134.552z"/>
						</g>
						<g>
							<path style="fill:#FC5F2D;" d="M64.727,141.416c0.491,0,0.889-0.398,0.889-0.889v-3.922c0-0.491-0.398-0.889-0.889-0.889
								c-0.491,0-0.889,0.398-0.889,0.889v3.922C63.838,141.018,64.236,141.416,64.727,141.416z"/>
						</g>
					</g>
					<g>
						<g>
							<path style="fill:#FC5F2D;" d="M59.222,136.023h3.523c0.491,0,0.889-0.398,0.889-0.889c0-0.491-0.398-0.889-0.889-0.889
								h-3.523c-0.491,0-0.889,0.398-0.889,0.889C58.332,135.624,58.73,136.023,59.222,136.023z"/>
						</g>
						<g>
							<path style="fill:#FC5F2D;" d="M66.709,136.023h3.523c0.491,0,0.889-0.398,0.889-0.889c0-0.491-0.398-0.889-0.889-0.889
								h-3.523c-0.491,0-0.889,0.398-0.889,0.889C65.82,135.624,66.218,136.023,66.709,136.023z"/>
						</g>
					</g>
				</g>
			</g>
		</g>
	</g>
	<g>
		<g>
			<polygon style="fill:#FC5F2D;" points="440.394,438.273 360.128,438.273 371.183,348.946 429.339,348.946 			"/>
			<g>
				<path style="fill:#ED3915;" d="M390.231,353.421c0,1.514-1.227,2.741-2.741,2.741c-1.514,0-2.741-1.227-2.741-2.741
					c0-1.514,1.227-2.741,2.741-2.741C389.003,350.68,390.231,351.908,390.231,353.421z"/>
				<path style="fill:#ED3915;" d="M418.281,353.421c0,1.514-1.227,2.741-2.741,2.741c-1.514,0-2.741-1.227-2.741-2.741
					c0-1.514,1.227-2.741,2.741-2.741C417.053,350.68,418.281,351.908,418.281,353.421z"/>
				<g>
					<path style="fill:#FFFFFF;" d="M387.556,353.103L387.556,353.103c-0.641-0.018-1.143-0.558-1.111-1.198
						c0.139-2.784,0.628-10.128,2.142-17.396c2.664-12.789,7.117-19.273,13.236-19.273c6.13,0,10.47,6.491,12.9,19.294
						c1.38,7.267,1.732,14.611,1.82,17.396c0.02,0.641-0.491,1.172-1.133,1.178l0,0c-0.625,0.006-1.138-0.489-1.154-1.114
						c-0.258-10.583-2.85-34.458-12.433-34.458c-9.6,0-12.639,23.891-13.093,34.48C388.703,352.635,388.181,353.12,387.556,353.103z
						"/>
				</g>
			</g>
		</g>
		<g>
			<polygon style="fill:#0172D2;" points="434.227,445.165 311.764,445.165 323.038,387.836 422.953,387.836 			"/>
			<g>
				<g>
					<path style="fill:#004FC7;" d="M351.524,393.04c0,1.514-1.227,2.741-2.741,2.741c-1.514,0-2.741-1.227-2.741-2.741
						c0-1.514,1.227-2.741,2.741-2.741C350.297,390.298,351.524,391.526,351.524,393.04z"/>
					<path style="fill:#004FC7;" d="M399.331,393.04c0,1.514-1.227,2.741-2.741,2.741c-1.514,0-2.741-1.227-2.741-2.741
						c0-1.514,1.227-2.741,2.741-2.741C398.104,390.298,399.331,391.526,399.331,393.04z"/>
				</g>
				<g>
					<path style="fill:#FFFFFF;" d="M348.761,392.718l-0.005,0c-0.733-0.021-1.299-0.653-1.233-1.384
						c0.216-2.419,0.945-7.73,3.363-13.104c4.331-9.627,11.994-14.715,22.161-14.715c10.18,0,17.711,5.098,21.776,14.743
						c2.265,5.374,2.844,10.685,2.992,13.107c0.045,0.733-0.54,1.352-1.275,1.352l0,0c-0.675,0-1.232-0.525-1.275-1.199
						c-0.144-2.25-0.697-7.33-2.82-12.335c-3.693-8.705-10.22-13.118-19.399-13.118c-9.217,0-15.891,4.445-19.835,13.211
						c-2.251,5.004-2.94,10.045-3.145,12.28C350.005,392.228,349.434,392.737,348.761,392.718z"/>
				</g>
			</g>
		</g>
		<g>
			<rect x="151.769" y="395.305" style="fill:#0172D2;" width="68.144" height="51.759"/>
			<rect x="149.512" y="392.719" style="fill:#0097EA;" width="72.657" height="8.607"/>
			<rect x="151.769" y="401.326" style="fill:#004FC7;" width="68.144" height="4.737"/>
			<rect x="182.854" y="392.719" style="fill:#FFFFFF;" width="5.973" height="54.391"/>
			<rect x="182.855" y="405.75" style="fill:#F1F1F1;" width="5.972" height="41.36"/>
			<rect x="182.855" y="401.327" style="fill:#D8D8D8;" width="5.972" height="4.736"/>
		</g>
	</g>
</g>
<g id="DESIGNED_BY_FREEPIK">
	<g>
		<g id="XMLID_1_">
			<g id="XMLID_20_">
				<path id="XMLID_28_" style="fill:#112129;" d="M260.104,465.465c-0.432,0.443-0.803,0.931-1.108,1.453l-0.465-0.241
					c-0.067-0.298-0.349-0.503-0.659-0.466c-0.331,0.039-0.568,0.339-0.529,0.67c0.039,0.331,0.339,0.568,0.67,0.529
					c0.065-0.008,0.127-0.026,0.183-0.052l0.452,0.234c-0.251,0.554-0.433,1.139-0.539,1.744l0.747,0.132
					c0.23-1.306,0.85-2.507,1.792-3.473L260.104,465.465z"/>
				<path id="XMLID_27_" style="fill:#112129;" d="M265.592,463.163c-0.171,0-0.341,0.006-0.51,0.017l-0.074-0.626
					c0.188-0.149,0.296-0.389,0.266-0.645c-0.046-0.393-0.402-0.674-0.795-0.628c-0.393,0.046-0.674,0.402-0.628,0.795
					c0.03,0.254,0.189,0.461,0.405,0.564l0.073,0.624c-0.714,0.116-1.403,0.332-2.06,0.646l0.327,0.684
					c0.934-0.447,1.942-0.673,2.995-0.673c0.496,0,0.993,0.053,1.475,0.158l0.161-0.741
					C266.692,463.222,266.142,463.163,265.592,463.163z"/>
				<path id="XMLID_26_" style="fill:#112129;" d="M272.194,465.711c0.331-0.04,0.566-0.341,0.526-0.672
					c-0.04-0.331-0.341-0.566-0.672-0.526c-0.309,0.038-0.535,0.304-0.53,0.609l-0.416,0.363c-0.418-0.43-0.89-0.813-1.408-1.139
					l-0.404,0.641c1.134,0.715,2.021,1.726,2.563,2.925l0.691-0.313c-0.251-0.554-0.568-1.072-0.942-1.545l0.402-0.351
					C272.065,465.716,272.129,465.719,272.194,465.711z"/>
				<path id="XMLID_25_" style="fill:#112129;" d="M265.044,473.372c-0.386,0.023-0.775,0.035-1.157,0.035
					c-0.88,0-1.733-0.061-2.478-0.179c-0.39-0.062-0.846-0.155-1.27-0.292c1.046,1.861,3.069,3.125,5.388,3.125
					c2.855,0,5.262-1.916,5.95-4.504c-0.682,0.449-1.505,0.825-2.459,1.123C267.839,473.047,266.464,473.286,265.044,473.372z"/>
				<path id="XMLID_21_" style="fill:#112129;" d="M265.592,464.68c-3.352,0-6.08,2.666-6.08,5.943c0,0.426,0.046,0.849,0.137,1.261
					c0.673,0.483,2.706,0.89,5.348,0.731c2.879-0.173,5.297-0.957,6.672-2.159c-0.005-0.195-0.021-0.39-0.045-0.582
					C271.244,466.913,268.65,464.68,265.592,464.68z M263.432,471.194c-1.02,0-1.85-0.83-1.85-1.85c0-1.02,0.83-1.85,1.85-1.85
					c1.02,0,1.85,0.83,1.85,1.85C265.282,470.365,264.452,471.194,263.432,471.194z M268.17,470.286c-0.75,0-1.36-0.61-1.36-1.36
					s0.61-1.361,1.36-1.361c0.75,0,1.361,0.61,1.361,1.361S268.92,470.286,268.17,470.286z"/>
			</g>
			<path id="XMLID_18_" style="fill:#112129;" d="M281.595,466.547c-0.295-0.116-0.805-0.309-1.382-0.237
				c-0.551,0.069-0.844,0.341-0.844,1.007v0.866h2.228v1.717h-2.228v5.455h-1.932v-5.455h-1.34v-1.717h1.34v-0.888
				c0-1.68,0.896-2.783,2.568-2.783c0.643,0,1.157,0.122,1.59,0.308L281.595,466.547z"/>
			<path id="XMLID_16_" style="fill:#112129;" d="M286.298,469.879c-0.177-0.03-0.358-0.046-0.526-0.046
				c-0.896,0-1.51,0.548-1.51,1.614v3.908h-1.932v-7.172h1.873v0.785c0.451-0.673,1.14-0.977,2.021-0.977
				c0.414,0,0.848,0.128,1.094,0.337L286.298,469.879z"/>
			<path id="XMLID_13_" style="fill:#112129;" d="M293.965,471.757c0,0.222-0.015,0.489-0.037,0.651h-5.085
				c0.207,1.036,0.933,1.488,1.843,1.488c0.622,0,1.295-0.252,1.813-0.688l1.132,1.243c-0.814,0.748-1.85,1.088-3.057,1.088
				c-2.198,0-3.723-1.495-3.723-3.753c0-2.258,1.48-3.797,3.627-3.797C292.544,467.99,293.958,469.522,293.965,471.757z
				 M288.851,471.091h3.175c-0.177-0.918-0.733-1.436-1.562-1.436C289.554,469.655,289.021,470.203,288.851,471.091z"/>
			<path id="XMLID_10_" style="fill:#112129;" d="M301.618,471.757c0,0.222-0.015,0.489-0.037,0.651h-5.085
				c0.207,1.036,0.933,1.488,1.843,1.488c0.622,0,1.295-0.252,1.813-0.688l1.132,1.243c-0.814,0.748-1.85,1.088-3.057,1.088
				c-2.198,0-3.723-1.495-3.723-3.753c0-2.258,1.48-3.797,3.627-3.797C300.197,467.99,301.611,469.522,301.618,471.757z
				 M296.504,471.091h3.175c-0.178-0.918-0.733-1.436-1.562-1.436C297.207,469.655,296.674,470.203,296.504,471.091z"/>
			<path id="XMLID_7_" style="fill:#112129;" d="M309.964,471.764c0,2.154-1.495,3.775-3.471,3.775
				c-0.962,0-1.643-0.378-2.109-0.933v3.708h-1.924v-10.133h1.887v0.792c0.466-0.585,1.155-0.984,2.139-0.984
				C308.469,467.99,309.964,469.61,309.964,471.764z M304.287,471.764c0,1.132,0.747,1.976,1.843,1.976
				c1.14,0,1.85-0.881,1.85-1.976c0-1.095-0.71-1.976-1.85-1.976C305.035,469.788,304.287,470.632,304.287,471.764z"/>
			<path id="XMLID_4_" style="fill:#112129;" d="M313.068,465.836c0,0.696-0.54,1.229-1.236,1.229c-0.696,0-1.229-0.533-1.229-1.229
				c0-0.696,0.533-1.243,1.229-1.243C312.527,464.592,313.068,465.14,313.068,465.836z M312.809,475.354h-1.932v-7.172h1.932
				V475.354z"/>
			<path id="XMLID_2_" style="fill:#112129;" d="M316.032,470.736l2.701-2.554h2.368l-3.479,3.375l3.501,3.797h-2.376l-2.716-2.901
				v2.901H314.1v-10.658h1.932V470.736z"/>
		</g>
		<g>
			<path style="fill:#112129;" d="M184.412,475.289v-1.055c-0.527,0.718-1.391,1.23-2.387,1.23c-1.846,0-3.149-1.406-3.149-3.706
				c0-2.256,1.289-3.721,3.149-3.721c0.952,0,1.816,0.469,2.387,1.245v-3.765h1.099v9.77H184.412z M184.412,473.37v-3.208
				c-0.395-0.615-1.245-1.143-2.124-1.143c-1.421,0-2.27,1.172-2.27,2.739c0,1.567,0.85,2.724,2.27,2.724
				C183.168,474.483,184.017,473.986,184.412,473.37z"/>
			<path style="fill:#112129;" d="M186.932,471.744c0-2.051,1.465-3.706,3.486-3.706c2.139,0,3.398,1.67,3.398,3.794v0.279h-5.727
				c0.088,1.333,1.025,2.446,2.549,2.446c0.805,0,1.626-0.322,2.182-0.894l0.527,0.718c-0.703,0.703-1.655,1.084-2.812,1.084
				C188.44,475.465,186.932,473.956,186.932,471.744z M190.403,468.947c-1.509,0-2.256,1.274-2.314,2.358h4.643
				C192.718,470.25,192.015,468.947,190.403,468.947z"/>
			<path style="fill:#112129;" d="M194.607,474.351l0.571-0.791c0.469,0.542,1.362,1.011,2.329,1.011c1.084,0,1.67-0.513,1.67-1.216
				c0-1.714-4.38-0.659-4.38-3.281c0-1.098,0.952-2.036,2.636-2.036c1.201,0,2.051,0.454,2.622,1.026l-0.513,0.762
				c-0.424-0.513-1.201-0.894-2.109-0.894c-0.967,0-1.567,0.483-1.567,1.113c0,1.552,4.38,0.527,4.38,3.281
				c0,1.187-0.952,2.138-2.783,2.138C196.306,475.465,195.325,475.113,194.607,474.351z"/>
			<path style="fill:#112129;" d="M201.477,466.471c0-0.41,0.337-0.747,0.732-0.747c0.41,0,0.747,0.337,0.747,0.747
				c0,0.41-0.337,0.732-0.747,0.732C201.814,467.203,201.477,466.881,201.477,466.471z M201.667,475.289v-7.075h1.099v7.075H201.667
				z"/>
			<path style="fill:#112129;" d="M204.582,477.105l0.556-0.82c0.586,0.703,1.289,0.967,2.3,0.967c1.172,0,2.27-0.571,2.27-2.124
				v-1.011c-0.513,0.718-1.377,1.26-2.373,1.26c-1.845,0-3.149-1.377-3.149-3.662c0-2.27,1.289-3.677,3.149-3.677
				c0.952,0,1.802,0.469,2.373,1.245v-1.069h1.098v6.87c0,2.344-1.641,3.076-3.369,3.076
				C206.237,478.16,205.417,477.926,204.582,477.105z M209.709,473.253v-3.091c-0.381-0.615-1.23-1.143-2.109-1.143
				c-1.421,0-2.27,1.128-2.27,2.695c0,1.553,0.849,2.695,2.27,2.695C208.478,474.41,209.328,473.868,209.709,473.253z"/>
			<path style="fill:#112129;" d="M217.413,475.289v-4.629c0-1.245-0.63-1.641-1.582-1.641c-0.865,0-1.685,0.527-2.095,1.099v5.17
				h-1.099v-7.075h1.099v1.025c0.498-0.586,1.465-1.201,2.519-1.201c1.48,0,2.256,0.747,2.256,2.285v4.966H217.413z"/>
			<path style="fill:#112129;" d="M219.932,471.744c0-2.051,1.465-3.706,3.486-3.706c2.139,0,3.398,1.67,3.398,3.794v0.279h-5.727
				c0.088,1.333,1.025,2.446,2.549,2.446c0.806,0,1.626-0.322,2.183-0.894l0.527,0.718c-0.703,0.703-1.655,1.084-2.812,1.084
				C221.441,475.465,219.932,473.956,219.932,471.744z M223.404,468.947c-1.509,0-2.256,1.274-2.314,2.358h4.643
				C225.718,470.25,225.015,468.947,223.404,468.947z"/>
			<path style="fill:#112129;" d="M233.35,475.289v-1.055c-0.527,0.718-1.392,1.23-2.388,1.23c-1.846,0-3.149-1.406-3.149-3.706
				c0-2.256,1.289-3.721,3.149-3.721c0.952,0,1.817,0.469,2.388,1.245v-3.765h1.098v9.77H233.35z M233.35,473.37v-3.208
				c-0.396-0.615-1.245-1.143-2.124-1.143c-1.421,0-2.27,1.172-2.27,2.739c0,1.567,0.849,2.724,2.27,2.724
				C232.105,474.483,232.954,473.986,233.35,473.37z"/>
			<path style="fill:#112129;" d="M239.692,475.289v-9.77h1.098v3.765c0.572-0.776,1.421-1.245,2.388-1.245
				c1.845,0,3.149,1.465,3.149,3.721c0,2.299-1.304,3.706-3.149,3.706c-0.996,0-1.86-0.513-2.388-1.23v1.055H239.692z
				 M242.9,474.483c1.436,0,2.285-1.157,2.285-2.724c0-1.568-0.85-2.739-2.285-2.739c-0.864,0-1.728,0.527-2.109,1.143v3.208
				C241.171,473.986,242.036,474.483,242.9,474.483z"/>
			<path style="fill:#112129;" d="M247.528,477.061c0.161,0.073,0.425,0.117,0.601,0.117c0.483,0,0.805-0.161,1.055-0.747
				l0.469-1.069l-2.959-7.148h1.187l2.358,5.8l2.344-5.8h1.201l-3.545,8.51c-0.425,1.025-1.143,1.421-2.08,1.435
				c-0.234,0-0.601-0.044-0.806-0.103L247.528,477.061z"/>
		</g>
	</g>
</g>
</svg>
