<svg width="9" height="13" viewBox="0 0 9 13" fill="none" xmlns="http://www.w3.org/2000/svg">
<path d="M5.26178 0.966834C5.26178 0.539255 5.60839 0.192627 6.03598 0.192627C6.31269 0.192627 6.55548 0.337783 6.69236 0.556094L8.77312 2.63687C9.07552 2.93921 9.07552 3.42942 8.77312 3.73176C8.47079 4.03411 7.98056 4.03411 7.67823 3.73176L6.81019 2.8637V8.70894C6.81019 9.13646 6.46358 9.48315 6.03598 9.48315C5.60839 9.48315 5.26178 9.13646 5.26178 8.70894V1.00512C5.2617 0.998058 5.2617 0.990997 5.26178 0.983936V0.966834Z" fill="#0F3659"/>
<path d="M3.73813 11.8172C3.73813 12.2448 3.39152 12.5914 2.96393 12.5914C2.68723 12.5914 2.44443 12.4463 2.30753 12.228L0.226757 10.1472C-0.0755858 9.84483 -0.0755858 9.35468 0.226757 9.05228C0.529109 8.74995 1.01931 8.74995 1.32166 9.05228L2.18971 9.9204V4.07517C2.18971 3.64758 2.53634 3.30096 2.96393 3.30096C3.39152 3.30096 3.73813 3.64758 3.73813 4.07517V11.779C3.73821 11.786 3.73821 11.793 3.73813 11.8002V11.8172Z" fill="#0F3659"/>
</svg>
