<svg width="16" height="25" viewBox="0 0 16 25" fill="none" xmlns="http://www.w3.org/2000/svg">
<path fill-rule="evenodd" clip-rule="evenodd" d="M0.802322 10.0227H14.5519C14.7212 10.0227 14.8543 9.88779 14.8543 9.71603V2.31181C14.8543 1.49594 14.1952 0.827286 13.391 0.827286H1.96324C1.15906 0.827286 0.5 1.49594 0.5 2.31181V9.71603C0.5 9.88779 0.633022 10.0227 0.802322 10.0227ZM14.2496 9.40931H1.10464V2.31181C1.10464 1.83333 1.49162 1.44073 1.96324 1.44073H13.391C13.8626 1.44073 14.2496 1.83333 14.2496 2.31181V9.40931Z" fill="white"/>
<path d="M1.10464 9.40931H0.757276V9.75667H1.10464V9.40931ZM14.2496 9.40931V9.75667H14.597V9.40931H14.2496ZM14.5519 9.67538H0.802322V10.3701H14.5519V9.67538ZM14.5069 9.71603C14.5069 9.71035 14.5098 9.69952 14.5192 9.68995C14.5288 9.68023 14.5418 9.67538 14.5519 9.67538V10.3701C14.9178 10.3701 15.2016 10.0749 15.2016 9.71603H14.5069ZM14.5069 2.31181V9.71603H15.2016V2.31181H14.5069ZM13.391 1.17465C13.9986 1.17465 14.5069 1.68303 14.5069 2.31181H15.2016C15.2016 1.30884 14.3918 0.479917 13.391 0.479917V1.17465ZM1.96324 1.17465H13.391V0.479917H1.96324V1.17465ZM0.847368 2.31181C0.847368 1.68304 1.35562 1.17465 1.96324 1.17465V0.479917C0.962504 0.479917 0.152632 1.30884 0.152632 2.31181H0.847368ZM0.847368 9.71603V2.31181H0.152632V9.71603H0.847368ZM0.802322 9.67538C0.812487 9.67538 0.82549 9.68023 0.835068 9.68995C0.8445 9.69952 0.847368 9.71035 0.847368 9.71603H0.152632C0.152632 10.0749 0.436462 10.3701 0.802322 10.3701V9.67538ZM1.10464 9.75667H14.2496V9.06194H1.10464V9.75667ZM0.757276 2.31181V9.40931H1.45201V2.31181H0.757276ZM1.96324 1.09336C1.29506 1.09336 0.757276 1.64623 0.757276 2.31181H1.45201C1.45201 2.02043 1.68818 1.78809 1.96324 1.78809V1.09336ZM13.391 1.09336H1.96324V1.78809H13.391V1.09336ZM14.597 2.31181C14.597 1.64623 14.0592 1.09336 13.391 1.09336V1.78809C13.6661 1.78809 13.9023 2.02043 13.9023 2.31181H14.597ZM14.597 9.40931V2.31181H13.9023V9.40931H14.597Z" fill="white"/>
<path fill-rule="evenodd" clip-rule="evenodd" d="M0.802322 9.28183H14.5519C14.7212 9.28183 14.8543 9.41679 14.8543 9.58855V22.6978C14.8543 23.5136 14.1952 24.1823 13.391 24.1823H1.96324C1.15906 24.1823 0.5 23.5136 0.5 22.6978V9.58855C0.5 9.41679 0.633022 9.28183 0.802322 9.28183ZM14.2496 9.89527H1.10464V22.6978C1.10464 23.1762 1.49162 23.5688 1.96324 23.5688H13.391C13.8626 23.5688 14.2496 23.1762 14.2496 22.6978V9.89527Z" fill="white"/>
<path d="M1.10464 9.89527H0.757276V9.54791H1.10464V9.89527ZM14.2496 9.89527V9.54791H14.597V9.89527H14.2496ZM14.5519 9.6292H0.802322V8.93446H14.5519V9.6292ZM14.5069 9.58855C14.5069 9.59423 14.5098 9.60506 14.5192 9.61463C14.5288 9.62434 14.5418 9.6292 14.5519 9.6292V8.93446C14.9178 8.93446 15.2016 9.22969 15.2016 9.58855H14.5069ZM14.5069 22.6978V9.58855H15.2016V22.6978H14.5069ZM13.391 23.8349C13.9986 23.8349 14.5069 23.3265 14.5069 22.6978H15.2016C15.2016 23.7007 14.3918 24.5296 13.391 24.5296V23.8349ZM1.96324 23.8349H13.391V24.5296H1.96324V23.8349ZM0.847368 22.6978C0.847368 23.3265 1.35562 23.8349 1.96324 23.8349V24.5296C0.962504 24.5296 0.152632 23.7007 0.152632 22.6978H0.847368ZM0.847368 9.58855V22.6978H0.152632V9.58855H0.847368ZM0.802322 9.6292C0.812487 9.6292 0.82549 9.62434 0.835068 9.61463C0.8445 9.60506 0.847368 9.59423 0.847368 9.58855H0.152632C0.152632 9.22969 0.436462 8.93446 0.802322 8.93446V9.6292ZM1.10464 9.54791H14.2496V10.2426H1.10464V9.54791ZM0.757276 22.6978V9.89527H1.45201V22.6978H0.757276ZM1.96324 23.9162C1.29506 23.9162 0.757276 23.3633 0.757276 22.6978H1.45201C1.45201 22.9891 1.68818 23.2215 1.96324 23.2215V23.9162ZM13.391 23.9162H1.96324V23.2215H13.391V23.9162ZM14.597 22.6978C14.597 23.3633 14.0592 23.9162 13.391 23.9162V23.2215C13.6661 23.2215 13.9023 22.9891 13.9023 22.6978H14.597ZM14.597 9.89527V22.6978H13.9023V9.89527H14.597Z" fill="white"/>
<path d="M3.55938 7.42798H3.39008C2.97288 7.42798 2.63428 7.08445 2.63428 6.66118V4.85822C2.63428 4.43495 2.97288 4.09142 3.39008 4.09142H3.55938C3.97659 4.09142 4.31519 4.43495 4.31519 4.85822V6.66118C4.31519 7.08445 3.97659 7.42798 3.55938 7.42798Z" fill="white"/>
<path d="M3.55938 16.397H3.39008C2.97288 16.397 2.63428 16.0535 2.63428 15.6302V12.6556C2.63428 12.2323 2.97288 11.8888 3.39008 11.8888H3.55938C3.97659 11.8888 4.31519 12.2323 4.31519 12.6556V15.6302C4.31519 16.0535 3.97659 16.397 3.55938 16.397Z" fill="white"/>
</svg>
