<svg width="38" height="38" viewBox="0 0 38 38" fill="none" xmlns="http://www.w3.org/2000/svg">
<g id="Group 39">
<g id="Group 34">
<g id="Shape">
<path fill-rule="evenodd" clip-rule="evenodd" d="M11.8023 16.0227H25.5519C25.7212 16.0227 25.8543 15.8878 25.8543 15.716V8.31181C25.8543 7.49594 25.1952 6.82729 24.391 6.82729H12.9632C12.1591 6.82729 11.5 7.49594 11.5 8.31181V15.716C11.5 15.8878 11.633 16.0227 11.8023 16.0227ZM25.2496 15.4093H12.1046V8.31181C12.1046 7.83333 12.4916 7.44073 12.9632 7.44073H24.391C24.8626 7.44073 25.2496 7.83333 25.2496 8.31181V15.4093Z" fill="white"/>
<path d="M12.1046 15.4093H11.7573V15.7567H12.1046V15.4093ZM25.2496 15.4093V15.7567H25.597V15.4093H25.2496ZM25.5519 15.6754H11.8023V16.3701H25.5519V15.6754ZM25.5069 15.716C25.5069 15.7103 25.5098 15.6995 25.5192 15.69C25.5288 15.6802 25.5418 15.6754 25.5519 15.6754V16.3701C25.9178 16.3701 26.2016 16.0749 26.2016 15.716H25.5069ZM25.5069 8.31181V15.716H26.2016V8.31181H25.5069ZM24.391 7.17465C24.9986 7.17465 25.5069 7.68303 25.5069 8.31181H26.2016C26.2016 7.30884 25.3918 6.47992 24.391 6.47992V7.17465ZM12.9632 7.17465H24.391V6.47992H12.9632V7.17465ZM11.8474 8.31181C11.8474 7.68304 12.3556 7.17465 12.9632 7.17465V6.47992C11.9625 6.47992 11.1526 7.30884 11.1526 8.31181H11.8474ZM11.8474 15.716V8.31181H11.1526V15.716H11.8474ZM11.8023 15.6754C11.8125 15.6754 11.8255 15.6802 11.8351 15.69C11.8445 15.6995 11.8474 15.7103 11.8474 15.716H11.1526C11.1526 16.0749 11.4365 16.3701 11.8023 16.3701V15.6754ZM12.1046 15.7567H25.2496V15.0619H12.1046V15.7567ZM11.7573 8.31181V15.4093H12.452V8.31181H11.7573ZM12.9632 7.09336C12.2951 7.09336 11.7573 7.64623 11.7573 8.31181H12.452C12.452 8.02043 12.6882 7.78809 12.9632 7.78809V7.09336ZM24.391 7.09336H12.9632V7.78809H24.391V7.09336ZM25.597 8.31181C25.597 7.64623 25.0592 7.09336 24.391 7.09336V7.78809C24.6661 7.78809 24.9023 8.02043 24.9023 8.31181H25.597ZM25.597 15.4093V8.31181H24.9023V15.4093H25.597Z" fill="white"/>
</g>
<g id="Shape Copy">
<path fill-rule="evenodd" clip-rule="evenodd" d="M11.8023 15.2818H25.5519C25.7212 15.2818 25.8543 15.4168 25.8543 15.5886V28.6978C25.8543 29.5136 25.1952 30.1823 24.391 30.1823H12.9632C12.1591 30.1823 11.5 29.5136 11.5 28.6978V15.5886C11.5 15.4168 11.633 15.2818 11.8023 15.2818ZM25.2496 15.8953H12.1046V28.6978C12.1046 29.1762 12.4916 29.5688 12.9632 29.5688H24.391C24.8626 29.5688 25.2496 29.1762 25.2496 28.6978V15.8953Z" fill="white"/>
<path d="M12.1046 15.8953H11.7573V15.5479H12.1046V15.8953ZM25.2496 15.8953V15.5479H25.597V15.8953H25.2496ZM25.5519 15.6292H11.8023V14.9345H25.5519V15.6292ZM25.5069 15.5886C25.5069 15.5942 25.5098 15.6051 25.5192 15.6146C25.5288 15.6243 25.5418 15.6292 25.5519 15.6292V14.9345C25.9178 14.9345 26.2016 15.2297 26.2016 15.5886H25.5069ZM25.5069 28.6978V15.5886H26.2016V28.6978H25.5069ZM24.391 29.8349C24.9986 29.8349 25.5069 29.3265 25.5069 28.6978H26.2016C26.2016 29.7007 25.3918 30.5296 24.391 30.5296V29.8349ZM12.9632 29.8349H24.391V30.5296H12.9632V29.8349ZM11.8474 28.6978C11.8474 29.3265 12.3556 29.8349 12.9632 29.8349V30.5296C11.9625 30.5296 11.1526 29.7007 11.1526 28.6978H11.8474ZM11.8474 15.5886V28.6978H11.1526V15.5886H11.8474ZM11.8023 15.6292C11.8125 15.6292 11.8255 15.6243 11.8351 15.6146C11.8445 15.6051 11.8474 15.5942 11.8474 15.5886H11.1526C11.1526 15.2297 11.4365 14.9345 11.8023 14.9345V15.6292ZM12.1046 15.5479H25.2496V16.2426H12.1046V15.5479ZM11.7573 28.6978V15.8953H12.452V28.6978H11.7573ZM12.9632 29.9162C12.2951 29.9162 11.7573 29.3633 11.7573 28.6978H12.452C12.452 28.9891 12.6882 29.2215 12.9632 29.2215V29.9162ZM24.391 29.9162H12.9632V29.2215H24.391V29.9162ZM25.597 28.6978C25.597 29.3633 25.0592 29.9162 24.391 29.9162V29.2215C24.6661 29.2215 24.9023 28.9891 24.9023 28.6978H25.597ZM25.597 15.8953V28.6978H24.9023V15.8953H25.597Z" fill="white"/>
</g>
<path id="Path" d="M14.5594 13.428H14.3901C13.9729 13.428 13.6343 13.0845 13.6343 12.6612V10.8582C13.6343 10.4349 13.9729 10.0914 14.3901 10.0914H14.5594C14.9766 10.0914 15.3152 10.4349 15.3152 10.8582V12.6612C15.3152 13.0845 14.9766 13.428 14.5594 13.428Z" fill="white"/>
<path id="Path_2" d="M14.5594 22.397H14.3901C13.9729 22.397 13.6343 22.0535 13.6343 21.6302V18.6556C13.6343 18.2323 13.9729 17.8888 14.3901 17.8888H14.5594C14.9766 17.8888 15.3152 18.2323 15.3152 18.6556V21.6302C15.3152 22.0535 14.9766 22.397 14.5594 22.397Z" fill="white"/>
</g>
</g>
</svg>
