<svg width="80" height="82" viewBox="0 0 80 82" fill="none" xmlns="http://www.w3.org/2000/svg">
<g id="Group">
<ellipse id="Mask" cx="40" cy="41.6847" rx="30.4" ry="30.4619" fill="#7A40F2"/>
<mask id="mask0_182_755" style="mask-type:luminance" maskUnits="userSpaceOnUse" x="9" y="11" width="62" height="62">
<ellipse id="Mask_2" cx="40" cy="41.6847" rx="30.4" ry="30.4619" fill="white"/>
</mask>
<g mask="url(#mask0_182_755)">
<g id="Group_2">
<path id="Fill 4" fill-rule="evenodd" clip-rule="evenodd" d="M30.6076 27.2719C28.9651 30.3919 25.1862 31.5412 21.8806 32.7557C18.5754 33.9696 14.9418 36.1526 14.6885 39.6711C14.5298 41.8837 15.8165 44.0218 15.5974 46.2297C15.1452 50.787 9.20714 52.3195 6.45423 55.9753C4.47318 58.6067 4.33523 62.3652 5.69946 65.3645C7.06368 68.3639 9.75569 70.6254 12.7725 71.9397C18.9989 74.6506 26.5633 73.414 32.0963 69.4725C37.6289 65.5314 41.1887 59.1702 42.4856 52.4929C43.7825 45.8159 42.952 38.8496 40.9391 32.353C40.1913 29.9398 39.1366 27.3967 36.9636 26.1143C34.7911 24.8319 31.2908 25.7214 30.895 28.2168L30.6076 27.2719Z" fill="#0A0F21"/>
<path id="Fill 5" fill-rule="evenodd" clip-rule="evenodd" d="M29.1746 33.5485C29.1746 24.7598 35.6912 17.6358 43.7298 17.6358C51.7685 17.6358 58.2847 24.7598 58.2847 33.5485C58.2847 42.3367 51.7685 49.4607 43.7298 49.4607C35.6912 49.4607 29.1746 42.3367 29.1746 33.5485Z" fill="#0A0F21"/>
<path id="Fill 6" fill-rule="evenodd" clip-rule="evenodd" d="M33.199 30.6522C33.199 30.6522 30.0664 28.1693 30.1065 27.6177L29.1746 27.9931L32.0336 31.5546L33.199 30.6522Z" fill="#FF05DB"/>
<path id="Fill 7" fill-rule="evenodd" clip-rule="evenodd" d="M25.7638 75.1697C25.7638 75.1697 36.9654 80.9606 43.1085 80.8193C49.4243 80.674 63.1405 74.3099 63.1405 74.3099C63.1405 74.3099 60.4549 60.3403 45.8683 63.4303C45.8683 63.4303 32.2518 60.024 25.7638 75.1697Z" fill="#57C6FF"/>
<path id="Fill 8" fill-rule="evenodd" clip-rule="evenodd" d="M51.7317 47.9943L39.0338 50.1537L38.9166 65.6969C38.9166 65.6969 39.6455 69.7231 46.2111 69.8359C52.408 69.9422 52.8209 65.5116 52.8209 65.5116L51.7317 47.9943L32.5892 62.0915Z" fill="#FBDED4"/>
<path id="Fill 9" fill-rule="evenodd" clip-rule="evenodd" d="M38.9669 58.9863L39.0338 50.1537L38.9669 58.9863Z" fill="#0A0F21"/>
<path id="Fill 10" fill-rule="evenodd" clip-rule="evenodd" d="M39.6184 59.0062C39.2045 59.0062 38.9692 58.9867 38.9669 58.9863L39.0338 50.1537L51.7317 47.9943L52.0477 53.0809C47.9024 58.5402 41.6368 59.0062 39.6184 59.0062Z" fill="#F6D3C8"/>
<path id="Fill 11" fill-rule="evenodd" clip-rule="evenodd" d="M60.519 40.8847C60.519 42.1208 59.0182 43.8711 57.2955 43.3681C56.1112 43.0223 54.5943 42.1208 54.5943 40.8847C54.5943 39.648 56.323 38.4054 57.5567 38.4054C59.5474 38.4054 60.519 39.648 60.519 40.8847Z" fill="#FBDED4"/>
<path id="Fill 12" fill-rule="evenodd" clip-rule="evenodd" d="M58.2847 41.8013C58.287 41.5314 58.3313 41.2655 58.4194 41.0104C58.5136 40.7561 58.6118 40.4981 58.8937 40.2855C58.9574 40.2351 59.0727 40.1967 59.1738 40.1967C59.2273 40.2018 59.2868 40.206 59.3329 40.2235C59.3758 40.2453 59.4192 40.2684 59.4589 40.2961C59.5341 40.3511 59.5724 40.4177 59.6268 40.4783C59.6979 40.5818 59.6969 40.6696 59.7011 40.7445C59.7029 41.0413 59.613 41.2905 59.499 41.536C59.4681 41.272 59.4524 41.0016 59.4058 40.7806C59.392 40.7293 59.3708 40.6826 59.3615 40.6817L59.254 40.5938C59.1858 40.5508 59.1724 40.5666 59.1009 40.6058C58.9574 40.6978 58.8167 40.9281 58.6889 41.1352C58.5629 41.3515 58.4282 41.5739 58.2847 41.8013Z" fill="#EEA08E"/>
<path id="Fill 13" fill-rule="evenodd" clip-rule="evenodd" d="M31.039 40.8847C31.039 42.1208 32.5403 43.8711 34.2625 43.3681C35.4472 43.0223 36.9637 42.1208 36.9637 40.8847C36.9637 39.648 35.235 38.4054 34.0014 38.4054C32.0106 38.4054 31.039 39.648 31.039 40.8847Z" fill="#FBDED4"/>
<path id="Fill 14" fill-rule="evenodd" clip-rule="evenodd" d="M33.2734 41.8013C33.1304 41.5739 32.9956 41.3515 32.8697 41.1352C32.7414 40.9281 32.6007 40.6978 32.4568 40.6058C32.3862 40.5666 32.3728 40.5508 32.3045 40.5938L32.1966 40.6817C32.1874 40.6826 32.1661 40.7293 32.1523 40.7806C32.1057 41.0016 32.09 41.272 32.0596 41.536C31.9451 41.2905 31.8552 41.0413 31.857 40.7445C31.8616 40.6696 31.8607 40.5818 31.9313 40.4783C31.9857 40.4177 32.024 40.3511 32.0992 40.2961C32.1389 40.2684 32.1823 40.2453 32.2252 40.2235C32.2718 40.206 32.3308 40.2018 32.3844 40.1967C32.4854 40.1967 32.6007 40.2351 32.6649 40.2855C32.9467 40.4981 33.0446 40.7561 33.1387 41.0104C33.2272 41.2655 33.2711 41.5314 33.2734 41.8013Z" fill="#EEA08E"/>
<path id="Fill 15" fill-rule="evenodd" clip-rule="evenodd" d="M57.5485 37.6643C57.7685 46.2977 53.6901 54.5496 46.607 54.7313C39.5233 54.9125 34.4078 47.5431 34.1877 38.9097C33.9677 30.2764 38.7256 23.6489 45.8088 23.4672C52.8925 23.2855 57.3279 29.0309 57.5485 37.6643Z" fill="#FBDED4"/>
<path id="Fill 20" fill-rule="evenodd" clip-rule="evenodd" d="M41.8112 38.1026C41.7996 38.5806 41.5034 38.961 41.1505 38.9527C40.7971 38.9439 40.5198 38.5496 40.5314 38.0716C40.5433 37.5936 40.8391 37.2131 41.1925 37.2214C41.5459 37.2302 41.8227 37.625 41.8112 38.1026Z" fill="#172133"/>
<path id="Fill 21" fill-rule="evenodd" clip-rule="evenodd" d="M51.0268 38.1026C51.0153 38.5806 50.7195 38.961 50.3657 38.9527C50.0127 38.9439 49.7355 38.5496 49.747 38.0716C49.7585 37.5936 50.0547 37.2131 50.4081 37.2214C50.761 37.2302 51.0383 37.625 51.0268 38.1026Z" fill="#172133"/>
<path id="Fill 22" fill-rule="evenodd" clip-rule="evenodd" d="M43.1085 42.6243C43.5579 43.1383 44.0165 43.6094 44.5175 43.9769C45.0199 44.338 45.5652 44.5812 46.1166 44.5627C46.6693 44.5682 47.2247 44.3181 47.7553 43.9848C48.2849 43.6432 48.7809 43.2081 49.3137 42.7759C49.0406 43.4051 48.6531 43.9862 48.1313 44.4688C47.8706 44.7115 47.5707 44.9186 47.2353 45.0855C46.8953 45.2404 46.5152 45.3384 46.1239 45.3486C45.7332 45.3463 45.3429 45.2566 45.0015 45.0911C44.6633 44.9191 44.3606 44.7 44.1152 44.4365C43.6183 43.9178 43.2732 43.2937 43.1085 42.6243Z" fill="#292929"/>
<path id="Fill 23" fill-rule="evenodd" clip-rule="evenodd" d="M45.3846 41.0007C45.5632 40.7284 45.7791 40.5153 46.0089 40.3234C46.2358 40.1283 46.4813 39.9619 46.7387 39.8135L46.724 40.5102C46.5011 40.341 46.3387 40.1403 46.2128 39.9323C46.0891 39.722 45.9946 39.5102 45.9295 39.2902C45.7943 38.8547 45.739 38.4067 45.7911 37.956C46.0384 38.3323 46.2525 38.6952 46.479 39.029C46.5989 39.1903 46.7023 39.3572 46.8301 39.4894C46.9528 39.6244 47.0764 39.7437 47.1996 39.8232L47.7103 40.1537L47.1849 40.5199C46.9417 40.6895 46.6866 40.8407 46.4135 40.9632C46.1422 41.0894 45.8575 41.1939 45.536 41.2392C45.4511 41.2517 45.3727 41.1925 45.3607 41.1075L45.3846 41.0007Z" fill="#D1746F"/>
<path id="Fill 24" fill-rule="evenodd" clip-rule="evenodd" d="M52.0477 21.6472C49.4854 19.559 44.81 20.4443 44.81 20.4443C40.5485 20.9607 36.6671 23.4321 34.7262 27.2687C31.7398 33.1708 34.2823 39.3873 34.2823 39.3873C41.1224 36.9048 45.4139 29.3111 47.227 25.408C48.0344 29.3291 50.4981 34.6464 57.5568 38.4049C57.5568 38.4049 59.5623 27.7707 52.0477 21.6472Z" fill="#0A0F21"/>
</g>
</g>
</g>
</svg>
