<?xml version="1.0" encoding="UTF-8" standalone="no"?>
<!DOCTYPE svg PUBLIC "-//W3C//DTD SVG 1.1//EN" "http://www.w3.org/Graphics/SVG/1.1/DTD/svg11.dtd">
<svg width="100%" height="100%" viewBox="0 0 591 172" version="1.1" xmlns="http://www.w3.org/2000/svg" xmlns:xlink="http://www.w3.org/1999/xlink" xml:space="preserve" xmlns:serif="http://www.serif.com/" style="fill-rule:evenodd;clip-rule:evenodd;stroke-linejoin:round;stroke-miterlimit:2;">
    <g transform="matrix(1,0,0,1,-111.515,-3671.62)">
        <g transform="matrix(1,0,0,1,2037.4,3359.44)">
            <g transform="matrix(15.7579,0,0,15.7579,-8201.14,-7803.64)">
                <g>
                    <path d="M401.714,515.367C402.226,515.367 402.681,515.422 403.079,515.532C403.477,515.642 403.799,515.759 404.045,515.883C404.291,516.007 404.442,516.091 404.498,516.135L403.4,517.995C403.336,517.947 403.225,517.88 403.067,517.794C402.909,517.708 402.732,517.631 402.536,517.563C402.34,517.495 402.152,517.461 401.972,517.461C401.76,517.461 401.584,517.49 401.444,517.548C401.304,517.606 401.234,517.705 401.234,517.845C401.234,517.941 401.272,518.029 401.348,518.109C401.424,518.189 401.553,518.271 401.735,518.355C401.917,518.439 402.166,518.535 402.482,518.643C402.79,518.743 403.072,518.867 403.328,519.015C403.584,519.163 403.805,519.339 403.991,519.543C404.177,519.747 404.322,519.981 404.426,520.245C404.53,520.509 404.582,520.807 404.582,521.139C404.582,521.579 404.491,521.954 404.309,522.264C404.127,522.574 403.884,522.825 403.58,523.017C403.276,523.209 402.937,523.35 402.563,523.44C402.189,523.53 401.81,523.575 401.426,523.575C400.838,523.575 400.315,523.511 399.857,523.383C399.399,523.255 399.029,523.116 398.747,522.966C398.465,522.816 398.292,522.709 398.228,522.645L399.362,520.707C399.406,520.743 399.501,520.801 399.647,520.881C399.793,520.961 399.969,521.045 400.175,521.133C400.381,521.221 400.594,521.296 400.814,521.358C401.034,521.42 401.238,521.451 401.426,521.451C401.678,521.451 401.864,521.415 401.984,521.343C402.104,521.271 402.164,521.167 402.164,521.031C402.164,520.935 402.127,520.845 402.053,520.761C401.979,520.677 401.847,520.588 401.657,520.494C401.467,520.4 401.198,520.291 400.85,520.167C400.514,520.043 400.194,519.881 399.89,519.681C399.586,519.481 399.338,519.221 399.146,518.901C398.954,518.581 398.858,518.181 398.858,517.701C398.858,517.213 398.994,516.795 399.266,516.447C399.538,516.099 399.892,515.832 400.328,515.646C400.764,515.46 401.226,515.367 401.714,515.367Z" style="fill-rule:nonzero;"/>
                    <path d="M408.428,523.431L408.428,522.741C408.388,522.813 408.299,522.916 408.161,523.05C408.023,523.184 407.843,523.305 407.621,523.413C407.399,523.521 407.14,523.575 406.844,523.575C406.352,523.575 405.929,523.452 405.575,523.206C405.221,522.96 404.95,522.639 404.762,522.243C404.574,521.847 404.48,521.423 404.48,520.971C404.48,520.519 404.574,520.095 404.762,519.699C404.95,519.303 405.221,518.981 405.575,518.733C405.929,518.485 406.352,518.361 406.844,518.361C407.124,518.361 407.368,518.4 407.576,518.478C407.784,518.556 407.957,518.65 408.095,518.76C408.233,518.87 408.336,518.977 408.404,519.081L408.404,518.505L410.756,518.505L410.756,523.431L408.428,523.431ZM406.796,520.971C406.796,521.107 406.83,521.235 406.898,521.355C406.966,521.475 407.06,521.571 407.18,521.643C407.3,521.715 407.44,521.751 407.6,521.751C407.76,521.751 407.9,521.715 408.02,521.643C408.14,521.571 408.234,521.475 408.302,521.355C408.37,521.235 408.404,521.107 408.404,520.971C408.404,520.835 408.37,520.707 408.302,520.587C408.234,520.467 408.14,520.37 408.02,520.296C407.9,520.222 407.76,520.185 407.6,520.185C407.44,520.185 407.3,520.222 407.18,520.296C407.06,520.37 406.966,520.467 406.898,520.587C406.83,520.707 406.796,520.835 406.796,520.971Z" style="fill-rule:nonzero;"/>
                    <path d="M414.596,523.431L414.596,522.741C414.556,522.813 414.467,522.916 414.329,523.05C414.191,523.184 414.011,523.305 413.789,523.413C413.567,523.521 413.308,523.575 413.012,523.575C412.52,523.575 412.097,523.452 411.743,523.206C411.389,522.96 411.118,522.639 410.93,522.243C410.742,521.847 410.648,521.423 410.648,520.971C410.648,520.519 410.742,520.095 410.93,519.699C411.118,519.303 411.389,518.981 411.743,518.733C412.097,518.485 412.52,518.361 413.012,518.361C413.292,518.361 413.536,518.4 413.744,518.478C413.952,518.556 414.125,518.65 414.263,518.76C414.401,518.87 414.504,518.977 414.572,519.081L414.572,518.505L416.924,518.505L416.924,523.431L414.596,523.431ZM412.964,520.971C412.964,521.107 412.998,521.235 413.066,521.355C413.134,521.475 413.228,521.571 413.348,521.643C413.468,521.715 413.608,521.751 413.768,521.751C413.928,521.751 414.068,521.715 414.188,521.643C414.308,521.571 414.402,521.475 414.47,521.355C414.538,521.235 414.572,521.107 414.572,520.971C414.572,520.835 414.538,520.707 414.47,520.587C414.402,520.467 414.308,520.37 414.188,520.296C414.068,520.222 413.928,520.185 413.768,520.185C413.608,520.185 413.468,520.222 413.348,520.296C413.228,520.37 413.134,520.467 413.066,520.587C412.998,520.707 412.964,520.835 412.964,520.971Z" style="fill-rule:nonzero;"/>
                    <path d="M420.188,515.367C420.7,515.367 421.155,515.422 421.553,515.532C421.951,515.642 422.273,515.759 422.519,515.883C422.765,516.007 422.916,516.091 422.972,516.135L421.874,517.995C421.81,517.947 421.699,517.88 421.541,517.794C421.383,517.708 421.206,517.631 421.01,517.563C420.814,517.495 420.626,517.461 420.446,517.461C420.234,517.461 420.058,517.49 419.918,517.548C419.778,517.606 419.708,517.705 419.708,517.845C419.708,517.941 419.746,518.029 419.822,518.109C419.898,518.189 420.027,518.271 420.209,518.355C420.391,518.439 420.64,518.535 420.956,518.643C421.264,518.743 421.546,518.867 421.802,519.015C422.058,519.163 422.279,519.339 422.465,519.543C422.651,519.747 422.796,519.981 422.9,520.245C423.004,520.509 423.056,520.807 423.056,521.139C423.056,521.579 422.965,521.954 422.783,522.264C422.601,522.574 422.358,522.825 422.054,523.017C421.75,523.209 421.411,523.35 421.037,523.44C420.663,523.53 420.284,523.575 419.9,523.575C419.312,523.575 418.789,523.511 418.331,523.383C417.873,523.255 417.503,523.116 417.221,522.966C416.939,522.816 416.766,522.709 416.702,522.645L417.836,520.707C417.88,520.743 417.975,520.801 418.121,520.881C418.267,520.961 418.443,521.045 418.649,521.133C418.855,521.221 419.068,521.296 419.288,521.358C419.508,521.42 419.712,521.451 419.9,521.451C420.152,521.451 420.338,521.415 420.458,521.343C420.578,521.271 420.638,521.167 420.638,521.031C420.638,520.935 420.601,520.845 420.527,520.761C420.453,520.677 420.321,520.588 420.131,520.494C419.941,520.4 419.672,520.291 419.324,520.167C418.988,520.043 418.668,519.881 418.364,519.681C418.06,519.481 417.812,519.221 417.62,518.901C417.428,518.581 417.332,518.181 417.332,517.701C417.332,517.213 417.468,516.795 417.74,516.447C418.012,516.099 418.366,515.832 418.802,515.646C419.238,515.46 419.7,515.367 420.188,515.367Z" style="fill-rule:nonzero;"/>
                    <path d="M423.206,523.431L423.206,518.505L425.564,518.505L425.564,523.431L423.206,523.431ZM424.412,517.959C424.06,517.959 423.761,517.834 423.515,517.584C423.269,517.334 423.146,517.037 423.146,516.693C423.146,516.349 423.269,516.05 423.515,515.796C423.761,515.542 424.06,515.415 424.412,515.415C424.644,515.415 424.856,515.473 425.048,515.589C425.24,515.705 425.395,515.859 425.513,516.051C425.631,516.243 425.69,516.457 425.69,516.693C425.69,517.037 425.565,517.334 425.315,517.584C425.065,517.834 424.764,517.959 424.412,517.959Z" style="fill-rule:nonzero;"/>
                    <path d="M424.412,517.959C424.06,517.959 423.761,517.834 423.515,517.584C423.269,517.334 423.146,517.037 423.146,516.693C423.146,516.349 423.269,516.05 423.515,515.796C423.761,515.542 424.06,515.415 424.412,515.415C424.644,515.415 424.856,515.473 425.048,515.589C425.24,515.705 425.395,515.859 425.513,516.051C425.631,516.243 425.69,516.457 425.69,516.693C425.69,517.037 425.565,517.334 425.315,517.584C425.065,517.834 424.764,517.959 424.412,517.959Z" style="fill:rgb(255,101,66);fill-rule:nonzero;"/>
                    <path d="M425.408,518.505L426.092,518.505L426.092,517.269C426.092,516.805 426.205,516.406 426.431,516.072C426.657,515.738 426.95,515.481 427.31,515.301C427.67,515.121 428.048,515.031 428.444,515.031C428.936,515.031 429.309,515.096 429.563,515.226C429.817,515.356 429.98,515.457 430.052,515.529L429.164,517.239C429.144,517.207 429.102,517.162 429.038,517.104C428.974,517.046 428.896,517.017 428.804,517.017C428.748,517.017 428.693,517.031 428.639,517.059C428.585,517.087 428.54,517.133 428.504,517.197C428.468,517.261 428.45,517.349 428.45,517.461L428.45,518.505L429.548,518.505L429.548,520.425L428.45,520.425L428.45,523.431L426.092,523.431L426.092,520.425L425.408,520.425L425.408,518.505Z" style="fill-rule:nonzero;"/>
                    <path d="M432.296,521.415L433.4,518.505L435.704,518.505L432.272,525.927L429.92,525.927L431.072,523.431L428.996,518.505L431.336,518.505L432.296,521.415Z" style="fill-rule:nonzero;"/>
                </g>
            </g>
        </g>
    </g>
</svg>
