<svg width="710" height="249" viewBox="0 0 710 249" fill="none" xmlns="http://www.w3.org/2000/svg">
<path d="M0.6 58.32C0.6 43.3867 5.64 31.9067 15.72 23.88C25.8 15.6667 40.2667 11.56 59.12 11.56C78.16 11.56 92.3467 13.52 101.68 17.44V57.76C90.2933 52.9067 77.32 50.48 62.76 50.48C55.2933 50.48 50.2533 51.6933 47.64 54.12C45.0267 56.36 43.72 59.6267 43.72 63.92V68.12C43.72 73.3467 44.56 77.2667 46.24 79.88C48.1067 82.3067 52.0267 85.1067 58 88.28L89.92 106.2C105.227 114.6 112.88 127.2 112.88 144V161.36C112.88 176.48 107.28 188.147 96.08 196.36C84.88 204.387 69.1067 208.4 48.76 208.4C28.6 208.4 13.3867 206.253 3.12 201.96V161.36C15.8133 166.773 30.1867 169.48 46.24 169.48C62.2933 169.48 70.32 164.907 70.32 155.76V151.56C70.32 147.267 69.3867 144.093 67.52 142.04C65.84 139.8 62.5733 137.373 57.72 134.76L27.76 118.52C9.65333 108.44 0.6 94.2533 0.6 75.96V58.32ZM164.807 159.12V166.96C164.807 173.307 168.074 176.48 174.607 176.48C180.207 176.48 184.874 175.453 188.607 173.4V139.52L175.727 142.88C171.06 144.187 168.074 145.867 166.767 147.92C165.46 149.973 164.807 153.707 164.807 159.12ZM132.047 45.72C142.314 42.1733 156.967 40.4 176.007 40.4C195.047 40.4 208.674 44.6 216.887 53C225.1 61.2133 229.207 73.72 229.207 90.52V207H189.727V194.96C184.314 203.36 174.887 207.56 161.447 207.56C148.007 207.56 138.3 204.387 132.327 198.04C126.354 191.507 123.367 181.147 123.367 166.96V157.44C123.367 144.933 126.074 135.32 131.487 128.6C137.087 121.88 146.047 116.84 158.367 113.48L188.887 105.64V90.24C188.7 85.3867 187.3 82.0267 184.687 80.16C182.074 78.1067 177.314 77.08 170.407 77.08C154.914 77.08 142.127 79.04 132.047 82.96V45.72ZM287.033 159.12V166.96C287.033 173.307 290.3 176.48 296.833 176.48C302.433 176.48 307.1 175.453 310.833 173.4V139.52L297.953 142.88C293.287 144.187 290.3 145.867 288.993 147.92C287.687 149.973 287.033 153.707 287.033 159.12ZM254.273 45.72C264.54 42.1733 279.193 40.4 298.233 40.4C317.273 40.4 330.9 44.6 339.113 53C347.327 61.2133 351.433 73.72 351.433 90.52V207H311.953V194.96C306.54 203.36 297.113 207.56 283.673 207.56C270.233 207.56 260.527 204.387 254.553 198.04C248.58 191.507 245.593 181.147 245.593 166.96V157.44C245.593 144.933 248.3 135.32 253.713 128.6C259.313 121.88 268.273 116.84 280.593 113.48L311.113 105.64V90.24C310.927 85.3867 309.527 82.0267 306.913 80.16C304.3 78.1067 299.54 77.08 292.633 77.08C277.14 77.08 264.353 79.04 254.273 82.96V45.72Z" fill="#5D76BF"/>
<path d="M370.34 56.92C370.34 44.6 374.447 34.9867 382.66 28.08C390.873 20.9867 402.353 17.44 417.1 17.44C432.033 17.44 444.633 19.0267 454.9 22.2V41.24C445.193 37.6933 433.34 35.92 419.34 35.92C400.113 35.92 390.5 43.2 390.5 57.76V71.2C390.5 77.7333 391.713 82.8667 394.14 86.6C396.753 90.3333 401.047 93.88 407.02 97.24L439.5 115.44C454.62 123.653 462.18 136.067 462.18 152.68V167.8C462.18 180.68 457.793 190.667 449.02 197.76C440.247 204.853 427.553 208.4 410.94 208.4C394.513 208.4 381.447 206.533 371.74 202.8V183.76C382.753 187.867 395.26 189.92 409.26 189.92C431.287 189.92 442.3 182.173 442.3 166.68V154.92C442.3 148.76 441.18 143.907 438.94 140.36C436.7 136.813 432.687 133.453 426.9 130.28L394.7 112.64C378.46 103.867 370.34 90.8 370.34 73.44V56.92ZM500.175 29.76C492.148 29.76 488.135 25.4667 488.135 16.88C488.135 8.29333 492.148 3.99999 500.175 3.99999C508.388 3.99999 512.495 8.29333 512.495 16.88C512.495 25.4667 508.388 29.76 500.175 29.76ZM490.375 48.8H510.255V207H490.375V48.8ZM554.77 38.16C554.77 26.0267 558.037 16.6933 564.57 10.16C571.104 3.43999 580.717 0.0799937 593.41 0.0799937C597.89 0.0799937 602.09 0.35999 606.01 0.919983V18C603.21 17.2533 599.477 16.88 594.81 16.88C581.37 16.88 574.65 23.88 574.65 37.88V47.68H604.33V64.76H574.65V207H554.77V64.76H538.81V47.68H554.77V38.16ZM689.853 47.68H709.733L666.053 248.72H647.013L655.693 207H645.893L611.173 47.68H631.333L648.133 126.92L660.453 193C664.186 170.973 668.293 148.947 672.773 126.92L689.853 47.68Z" fill="#A2C0FF"/>
</svg>
